<svg version="1.1" id="Layer_1" xmlns="http://www.w3.org/2000/svg" xmlns:xlink="http://www.w3.org/1999/xlink" x="0px" y="0px"
	 width="100%" viewBox="0 0 200 200" enable-background="new 0 0 200 200" xml:space="preserve">
<path fill="#0173E7" opacity="1.000000" stroke="none" 
	d="
M110.000000,201.000000 
	C73.355949,201.000000 37.211899,201.000000 1.033923,201.000000 
	C1.033923,134.397644 1.033923,67.795280 1.033923,1.096454 
	C67.560547,1.096454 134.121292,1.096454 200.841003,1.096454 
	C200.841003,67.666367 200.841003,134.333145 200.841003,201.000000 
	C170.795563,201.000000 140.647781,201.000000 110.000000,201.000000 
M106.046394,84.820679 
	C103.977646,85.389938 101.781555,85.699432 99.888672,86.627426 
	C98.781509,87.170212 98.158310,88.700180 97.398529,90.449890 
	C98.399246,92.583282 100.142738,94.677055 100.259056,96.857620 
	C100.585876,102.984360 100.444511,109.158829 100.081520,115.290421 
	C99.887573,118.566711 99.951347,123.171318 97.967911,124.749092 
	C94.108803,127.818909 91.956146,122.388458 88.457848,120.332031 
	C81.967751,104.548607 75.477654,88.765182 68.953865,72.215828 
	C66.944855,67.617195 62.157425,66.536140 53.655491,69.096458 
	C57.813499,73.751823 54.974594,78.091713 53.235260,82.541588 
	C48.401379,94.908501 43.720123,107.337341 38.686802,119.622169 
	C37.642200,122.171730 35.329670,124.198730 33.621437,126.481483 
	C33.161026,127.096741 32.278973,128.084885 32.449287,128.349869 
	C32.894169,129.042038 33.801453,129.846146 34.546864,129.868896 
	C39.030132,130.005798 43.521938,130.004929 48.004883,129.861938 
	C48.702019,129.839706 49.368340,128.851486 50.048912,128.309967 
	C49.390572,127.718674 48.830051,126.874603 48.058441,126.575989 
	C41.781963,124.146950 41.288414,121.502159 46.683842,117.231064 
	C53.511868,111.825897 61.550468,109.329353 70.246689,108.595192 
	C70.246689,108.595192 70.602867,108.885956 70.609818,109.549179 
	C71.417374,111.335777 72.224930,113.122375 73.131317,115.698296 
	C73.535507,117.591255 73.736038,119.558464 74.392578,121.359428 
	C75.328987,123.928070 74.462563,125.005714 71.210823,125.021393 
	C67.944534,124.943436 66.449074,126.620110 66.105934,131.041626 
	C70.173836,131.041626 73.869873,131.046310 77.565895,131.040787 
	C91.387016,131.020111 105.208656,131.044830 119.028511,130.900604 
	C120.466347,130.885605 121.893646,129.861023 123.325836,129.304871 
	C122.357407,128.126816 121.599091,126.276062 120.381493,125.895760 
	C116.597160,124.713768 115.733551,122.276588 115.829895,118.680435 
	C116.021675,111.522362 115.907211,104.356094 116.470039,96.647392 
	C120.805870,95.339073 125.141708,94.030754 130.041367,92.552292 
	C130.041367,91.497810 130.062073,89.864609 130.037552,88.232086 
	C129.957352,82.889999 126.524422,80.884644 122.009918,83.846786 
	C120.156509,85.062874 118.885635,87.188911 117.412521,88.953415 
	C116.640755,89.877861 116.004700,90.915611 115.307358,91.902191 
	C114.974609,91.804924 114.641861,91.707664 114.309113,91.610397 
	C114.309113,88.755775 114.309113,85.901154 114.309113,82.417252 
	C112.074379,83.107674 110.546829,83.579613 108.413589,84.017845 
	C107.888489,84.283203 107.363396,84.548569 106.046394,84.820679 
M137.122681,124.866211 
	C137.122681,124.866211 137.149750,124.792694 137.208786,125.490479 
	C139.509720,127.615074 141.810654,129.739670 144.265182,132.430191 
	C145.175018,132.283920 146.084839,132.137650 147.851410,131.989029 
	C149.565247,131.999893 151.279068,132.010757 153.011627,132.819153 
	C154.052795,134.171036 154.953613,136.510849 156.162460,136.682571 
	C159.314362,137.130386 160.936188,135.067490 160.898102,131.134979 
	C160.950195,130.431519 161.002289,129.728058 161.231003,128.818680 
	C161.231003,128.818680 161.499466,128.857605 162.283951,128.880737 
	C171.177017,127.874634 175.202744,119.709946 170.659744,111.497574 
	C166.898254,112.450691 163.069611,114.208717 159.252167,114.184738 
	C154.684357,114.156021 149.506180,113.651360 145.737488,111.419334 
	C141.940445,109.170517 143.882965,97.677071 147.824692,94.550362 
	C149.518021,95.659531 151.235092,96.784256 153.443695,98.230949 
	C151.798477,98.773186 150.692398,99.017693 149.692444,99.487892 
	C145.145081,101.626183 144.335968,106.559898 148.138641,109.857193 
	C148.923325,110.537598 150.529053,110.271111 151.756348,110.441048 
	C151.728317,109.265022 151.947083,108.009880 151.602615,106.935295 
	C151.260635,105.868416 150.351822,104.983231 149.244614,103.365128 
	C156.899139,103.696396 155.466995,108.428871 154.668411,113.801155 
	C156.443497,112.222328 157.306290,111.658813 157.902771,110.888962 
	C160.428680,107.628937 158.517838,104.240990 158.898331,100.919067 
	C160.376236,100.742775 161.870804,100.653809 163.329178,100.375267 
	C170.092957,99.083435 171.841507,95.393578 169.588745,88.900185 
	C167.376953,82.524872 162.489746,81.764633 156.916656,81.686501 
	C149.270935,81.579300 141.399811,80.799026 137.219635,90.086838 
	C130.897995,99.763695 130.131485,110.003517 133.699966,121.280159 
	C132.897339,122.757027 132.094711,124.233894 130.875092,126.478012 
	C133.824585,125.716995 135.511536,125.281731 137.122681,124.866211 
M168.598434,103.447906 
	C167.896667,102.968941 167.194916,102.489975 166.493149,102.011009 
	C166.258255,102.696037 166.023361,103.381065 165.788483,104.066093 
	C166.637466,104.037415 167.486465,104.008743 168.598434,103.447906 
M173.754181,91.890366 
	C174.041397,91.470428 174.357193,91.064713 174.581726,90.613579 
	C174.611664,90.553406 174.179245,90.263115 173.960953,90.079399 
	C173.789703,90.585548 173.618454,91.091698 173.754181,91.890366 
M175.724197,106.076927 
	C175.903107,106.045891 176.082031,106.014847 176.260941,105.983803 
	C176.085098,105.940521 175.909271,105.897247 175.724197,106.076927 
M175.753632,113.856071 
	C175.899124,113.961678 176.044601,114.067276 176.190063,114.172890 
	C176.098557,114.018806 176.007050,113.864723 175.753632,113.856071 
M162.475479,102.502342 
	C162.475479,102.502342 162.512817,102.489677 162.475479,102.502342 
z"/>
<path fill="#F0F9FB" opacity="1.000000" stroke="none" 
	d="
M71.923431,125.155258 
	C74.462563,125.005714 75.328987,123.928070 74.392578,121.359428 
	C73.736038,119.558464 73.535507,117.591255 73.097603,114.946732 
	C72.243546,112.425430 71.423210,110.655693 70.602867,108.885956 
	C70.602867,108.885956 70.246689,108.595192 70.098640,108.049469 
	C68.994186,104.999817 68.037781,102.495872 66.971703,99.837898 
	C66.862022,99.683861 66.860588,99.305679 66.889740,98.934891 
	C66.303879,97.366058 65.688866,96.168007 65.043442,94.959244 
	C65.013023,94.948540 65.052689,94.897682 65.050674,94.577225 
	C64.685196,93.508911 64.321724,92.761040 63.851105,91.918098 
	C63.743961,91.823021 63.779800,91.538780 63.763168,91.196854 
	C63.427635,90.263840 63.108738,89.672745 62.824150,89.091492 
	C62.858456,89.101334 62.833199,89.168098 62.869370,88.768494 
	C61.702587,85.946213 60.499630,83.523544 59.112213,81.051437 
	C58.927750,81.001999 58.672897,80.717514 58.619057,80.648811 
	C58.352516,80.563271 58.223186,80.659233 58.173782,80.965736 
	C58.170345,81.063492 57.983047,81.119980 57.683968,80.952393 
	C57.189346,78.277565 57.216862,75.727264 56.743240,73.273697 
	C56.115040,70.019333 57.726562,68.547447 60.432796,69.205505 
	C63.414185,69.930458 66.146652,71.679070 68.987556,72.981758 
	C75.477654,88.765182 81.967751,104.548607 88.725998,120.974091 
	C90.845924,123.912346 92.697701,126.208542 94.932846,128.980118 
	C85.924400,128.980118 77.174057,128.980118 67.136337,128.980118 
	C69.527016,127.069984 70.725220,126.112617 71.923431,125.155258 
z"/>
<path fill="#EDF9FB" opacity="1.000000" stroke="none" 
	d="
M134.114777,120.724686 
	C130.131485,110.003517 130.897995,99.763695 137.548737,89.681610 
	C139.551743,88.437706 141.225662,87.599030 143.120316,87.024574 
	C143.948807,87.976097 144.556564,88.663406 145.200195,89.728271 
	C141.703003,98.192322 140.871658,106.416405 144.680634,114.589615 
	C148.411057,122.594238 158.952835,124.570259 165.565369,118.758148 
	C166.426239,118.001488 167.450546,117.430786 168.399155,116.773956 
	C168.858582,117.201317 169.318008,117.628677 169.777420,118.056038 
	C167.018112,121.656563 164.258789,125.257088 161.499466,128.857605 
	C161.499466,128.857605 161.231003,128.818680 160.743759,128.943497 
	C151.683350,132.349792 144.067627,130.456879 137.149750,124.792694 
	C137.149750,124.792694 137.122681,124.866211 137.089020,124.536346 
	C136.075165,123.045883 135.094971,121.885284 134.114777,120.724686 
z"/>
<path fill="#0975E1" opacity="1.000000" stroke="none" 
	d="
M161.891708,128.869171 
	C164.258789,125.257088 167.018112,121.656563 169.777420,118.056038 
	C169.318008,117.628677 168.858582,117.201317 168.399155,116.773956 
	C167.450546,117.430786 166.426239,118.001488 165.565369,118.758148 
	C158.952835,124.570259 148.411057,122.594238 144.680634,114.589615 
	C140.871658,106.416405 141.703003,98.192322 145.439819,89.631500 
	C145.795822,88.860085 145.948120,88.562988 146.389862,88.146988 
	C147.450897,87.337921 148.222488,86.647751 149.404175,85.993454 
	C152.250702,86.969910 154.687134,87.910492 157.131287,89.250168 
	C157.259094,91.887375 157.338623,94.128662 157.513412,96.362503 
	C157.632111,97.879570 157.884430,99.386185 158.076996,100.897476 
	C158.517838,104.240990 160.428680,107.628937 157.902771,110.888962 
	C157.306290,111.658813 156.443497,112.222328 154.668411,113.801155 
	C155.466995,108.428871 156.899139,103.696396 149.244614,103.365128 
	C150.351822,104.983231 151.260635,105.868416 151.602615,106.935295 
	C151.947083,108.009880 151.728317,109.265022 151.756348,110.441048 
	C150.529053,110.271111 148.923325,110.537598 148.138641,109.857193 
	C144.335968,106.559898 145.145081,101.626183 149.692444,99.487892 
	C150.692398,99.017693 151.798477,98.773186 153.443695,98.230949 
	C151.235092,96.784256 149.518021,95.659531 147.824692,94.550362 
	C143.882965,97.677071 141.940445,109.170517 145.737488,111.419334 
	C149.506180,113.651360 154.684357,114.156021 159.252167,114.184738 
	C163.069611,114.208717 166.898254,112.450691 170.659744,111.497574 
	C175.202744,119.709946 171.177017,127.874634 161.891708,128.869171 
z"/>
<path fill="#D9F2FA" opacity="1.000000" stroke="none" 
	d="
M67.081375,99.991936 
	C68.037781,102.495872 68.994186,104.999817 70.008987,107.837784 
	C61.550468,109.329353 53.511868,111.825897 46.683842,117.231064 
	C41.288414,121.502159 41.781963,124.146950 48.058441,126.575989 
	C48.830051,126.874603 49.390572,127.718674 50.048912,128.309967 
	C49.368340,128.851486 48.702019,129.839706 48.004883,129.861938 
	C43.521938,130.004929 39.030132,130.005798 34.546864,129.868896 
	C33.801453,129.846146 32.894169,129.042038 32.449287,128.349869 
	C32.278973,128.084885 33.161026,127.096741 33.621437,126.481483 
	C35.329670,124.198730 37.642200,122.171730 38.686802,119.622169 
	C43.720123,107.337341 48.401379,94.908501 53.235260,82.541588 
	C54.974594,78.091713 57.813499,73.751823 53.655491,69.096458 
	C62.157425,66.536140 66.944855,67.617195 68.970711,72.598793 
	C66.146652,71.679070 63.414185,69.930458 60.432796,69.205505 
	C57.726562,68.547447 56.115040,70.019333 56.743240,73.273697 
	C57.216862,75.727264 57.189346,78.277565 57.662224,81.286392 
	C57.642315,82.867188 57.345074,83.946411 56.834236,85.275406 
	C56.394897,86.348717 56.169155,87.172256 55.851639,88.110878 
	C55.759865,88.225967 55.793331,88.518463 55.533817,88.749863 
	C55.114845,89.651543 54.955383,90.321815 54.852585,90.962410 
	C54.909241,90.932732 54.848461,90.820175 54.606037,91.021988 
	C54.239807,91.831169 54.116001,92.438545 53.896622,93.146034 
	C53.801056,93.246155 53.821804,93.522202 53.565094,93.792030 
	C51.865284,98.040497 50.422180,102.019135 48.994026,105.996597 
	C49.008980,105.995422 48.987209,105.974091 48.757889,106.246376 
	C47.946762,108.218437 47.364960,109.918213 46.345722,112.895981 
	C49.447227,111.101463 51.238304,110.065163 53.016346,109.011780 
	C53.003311,108.994713 53.002254,109.037544 53.327595,109.027115 
	C54.211700,108.716484 54.770466,108.416283 55.506241,108.111328 
	C55.683250,108.106583 55.979790,107.912979 56.337677,107.890266 
	C58.029121,107.349648 59.362675,106.831741 61.065041,106.269501 
	C63.631878,105.708008 65.829903,105.190865 68.151268,104.644699 
	C67.735970,102.838623 67.408676,101.415283 67.081375,99.991936 
z"/>
<path fill="#2F7BC3" opacity="1.000000" stroke="none" 
	d="
M71.567123,125.088326 
	C70.725220,126.112617 69.527016,127.069984 67.136337,128.980118 
	C77.174057,128.980118 85.924400,128.980118 94.932846,128.980118 
	C92.697701,126.208542 90.845924,123.912346 88.960648,121.235237 
	C91.956146,122.388458 94.108803,127.818909 97.967911,124.749092 
	C99.951347,123.171318 99.887573,118.566711 100.081520,115.290421 
	C100.444511,109.158829 100.585876,102.984360 100.259056,96.857620 
	C100.142738,94.677055 98.399246,92.583282 97.675842,90.168976 
	C98.952820,90.301979 99.952484,90.715904 101.204910,91.467789 
	C101.697311,99.237343 102.214691,106.673882 102.082451,114.098862 
	C101.988762,119.359085 104.910774,125.984222 97.027313,129.148041 
	C105.112297,129.148041 113.197281,129.148041 121.950172,129.148041 
	C118.768799,126.711029 116.335846,124.847328 113.965134,122.519577 
	C114.055840,115.315758 113.975067,108.572433 114.194183,101.838867 
	C114.245132,100.273262 115.317093,98.740875 115.919266,97.193207 
	C115.907211,104.356094 116.021675,111.522362 115.829895,118.680435 
	C115.733551,122.276588 116.597160,124.713768 120.381493,125.895760 
	C121.599091,126.276062 122.357407,128.126816 123.325836,129.304871 
	C121.893646,129.861023 120.466347,130.885605 119.028511,130.900604 
	C105.208656,131.044830 91.387016,131.020111 77.565895,131.040787 
	C73.869873,131.046310 70.173836,131.041626 66.105934,131.041626 
	C66.449074,126.620110 67.944534,124.943436 71.567123,125.088326 
z"/>
<path fill="#E1F6FA" opacity="1.000000" stroke="none" 
	d="
M116.194656,96.920303 
	C115.317093,98.740875 114.245132,100.273262 114.194183,101.838867 
	C113.975067,108.572433 114.055840,115.315758 113.772568,122.157188 
	C113.388794,111.119690 113.035400,99.975975 113.261574,88.844032 
	C113.333588,85.299118 112.668785,83.765793 109.052094,84.135170 
	C109.041634,84.107109 109.019279,84.051552 109.019279,84.051552 
	C110.546829,83.579613 112.074379,83.107674 114.309113,82.417252 
	C114.309113,85.901154 114.309113,88.755775 114.309113,91.610397 
	C114.641861,91.707664 114.974609,91.804924 115.307358,91.902191 
	C116.004700,90.915611 116.640755,89.877861 117.412521,88.953415 
	C118.885635,87.188911 120.156509,85.062874 122.009918,83.846786 
	C126.524422,80.884644 129.957352,82.889999 130.037552,88.232086 
	C130.062073,89.864609 130.041367,91.497810 130.041367,92.552292 
	C125.141708,94.030754 120.805870,95.339073 116.194656,96.920303 
z"/>
<path fill="#1977D4" opacity="1.000000" stroke="none" 
	d="
M158.487671,100.908272 
	C157.884430,99.386185 157.632111,97.879570 157.513412,96.362503 
	C157.338623,94.128662 157.259094,91.887375 157.478577,89.429321 
	C158.454636,92.368271 159.091125,95.527161 159.719925,98.647926 
	C167.215179,99.113556 170.662262,95.790237 167.970596,90.136833 
	C166.738892,87.549828 163.619247,84.869408 160.885071,84.223236 
	C156.811447,83.260506 152.320999,84.061440 147.717590,84.000458 
	C146.919128,84.170731 146.411011,84.452469 145.582047,84.777878 
	C144.473999,85.467819 143.686783,86.114082 142.899567,86.760345 
	C141.225662,87.599030 139.551743,88.437706 137.521423,89.335083 
	C141.399811,80.799026 149.270935,81.579300 156.916656,81.686501 
	C162.489746,81.764633 167.376953,82.524872 169.588745,88.900185 
	C171.841507,95.393578 170.092957,99.083435 163.329178,100.375267 
	C161.870804,100.653809 160.376236,100.742775 158.487671,100.908272 
z"/>
<path fill="#1F7AD2" opacity="1.000000" stroke="none" 
	d="
M137.179260,125.141586 
	C144.067627,130.456879 151.683350,132.349792 160.655457,129.046448 
	C161.002289,129.728058 160.950195,130.431519 160.530304,131.507507 
	C159.461380,131.903458 158.760269,131.926880 157.674469,131.949478 
	C156.522308,131.960617 155.754822,131.972565 154.654846,131.982391 
	C153.879211,131.994064 153.436050,132.007843 152.992905,132.021606 
	C151.279068,132.010757 149.565247,131.999893 147.061462,131.978424 
	C145.551529,131.933289 144.831558,131.898773 144.111588,131.864258 
	C141.810654,129.739670 139.509720,127.615074 137.179260,125.141586 
z"/>
<path fill="#0975E1" opacity="1.000000" stroke="none" 
	d="
M153.002258,132.420380 
	C153.436050,132.007843 153.879211,131.994064 154.767105,132.252350 
	C156.160950,132.333054 157.110046,132.141678 158.059143,131.950302 
	C158.760269,131.926880 159.461380,131.903458 160.509155,131.859253 
	C160.936188,135.067490 159.314362,137.130386 156.162460,136.682571 
	C154.953613,136.510849 154.052795,134.171036 153.002258,132.420380 
z"/>
<path fill="#E1F6FA" opacity="1.000000" stroke="none" 
	d="
M100.952164,91.129837 
	C99.952484,90.715904 98.952820,90.301979 97.635269,89.837051 
	C98.158310,88.700180 98.781509,87.170212 99.888672,86.627426 
	C101.781555,85.699432 103.977646,85.389938 106.502213,84.894440 
	C106.958031,84.968193 107.073074,85.125984 106.811546,85.324501 
	C104.684067,87.391960 102.818115,89.260902 100.952164,91.129837 
z"/>
<path fill="#1F7AD2" opacity="1.000000" stroke="none" 
	d="
M133.907379,121.002426 
	C135.094971,121.885284 136.075165,123.045883 137.126923,124.526474 
	C135.511536,125.281731 133.824585,125.716995 130.875092,126.478012 
	C132.094711,124.233894 132.897339,122.757027 133.907379,121.002426 
z"/>
<path fill="#0975E1" opacity="1.000000" stroke="none" 
	d="
M168.466949,103.713989 
	C167.486465,104.008743 166.637466,104.037415 165.788483,104.066093 
	C166.023361,103.381065 166.258255,102.696037 166.493149,102.011009 
	C167.194916,102.489975 167.896667,102.968941 168.466949,103.713989 
z"/>
<path fill="#D9F2FA" opacity="1.000000" stroke="none" 
	d="
M70.606339,109.217567 
	C71.423210,110.655693 72.243546,112.425430 73.048187,114.552071 
	C72.224930,113.122375 71.417374,111.335777 70.606339,109.217567 
z"/>
<path fill="#1977D4" opacity="1.000000" stroke="none" 
	d="
M173.600708,91.744110 
	C173.618454,91.091698 173.789703,90.585548 173.960953,90.079399 
	C174.179245,90.263115 174.611664,90.553406 174.581726,90.613579 
	C174.357193,91.064713 174.041397,91.470428 173.600708,91.744110 
z"/>
<path fill="#0975E1" opacity="1.000000" stroke="none" 
	d="
M144.188385,132.147232 
	C144.831558,131.898773 145.551529,131.933289 146.633087,131.979599 
	C146.084839,132.137650 145.175018,132.283920 144.188385,132.147232 
z"/>
<path fill="#0975E1" opacity="1.000000" stroke="none" 
	d="
M175.728821,105.965446 
	C175.909271,105.897247 176.085098,105.940521 176.260941,105.983803 
	C176.082031,106.014847 175.903107,106.045891 175.728821,105.965446 
z"/>
<path fill="#0975E1" opacity="1.000000" stroke="none" 
	d="
M175.834595,113.783356 
	C176.007050,113.864723 176.098557,114.018806 176.190063,114.172882 
	C176.044601,114.067276 175.899124,113.961678 175.834595,113.783356 
z"/>
<path fill="#E1F6FA" opacity="1.000000" stroke="none" 
	d="
M106.898163,84.891060 
	C107.363396,84.548569 107.888489,84.283203 108.716431,84.034698 
	C109.019279,84.051552 109.041634,84.107109 108.829041,84.301605 
	C108.101997,84.706055 107.587540,84.916023 107.073074,85.125992 
	C107.073074,85.125984 106.958031,84.968193 106.898163,84.891060 
z"/>
<path fill="#0975E1" opacity="1.000000" stroke="none" 
	d="
M162.494141,102.496010 
	C162.512817,102.489677 162.475479,102.502342 162.494141,102.496010 
z"/>
<path fill="#0B75E0" opacity="1.000000" stroke="none" 
	d="
M66.971695,99.837898 
	C67.408676,101.415283 67.735970,102.838623 68.151268,104.644699 
	C65.829903,105.190865 63.631878,105.708008 60.666229,106.216797 
	C58.592335,106.776619 57.286060,107.344795 55.979790,107.912979 
	C55.979790,107.912979 55.683250,108.106583 55.183304,108.129578 
	C54.122990,108.447563 53.562622,108.742554 53.002254,109.037544 
	C53.002254,109.037544 53.003311,108.994713 52.646111,108.974251 
	C51.188339,107.960556 50.087776,106.967323 48.987213,105.974091 
	C48.987209,105.974091 49.008980,105.995422 49.309601,105.852051 
	C51.014084,101.646515 52.417942,97.584358 53.821800,93.522202 
	C53.821804,93.522202 53.801056,93.246155 54.093803,92.909164 
	C54.540516,91.988174 54.694489,91.404175 54.848461,90.820175 
	C54.848461,90.820175 54.909241,90.932732 55.071281,90.697357 
	C55.419994,89.814140 55.606663,89.166298 55.793331,88.518463 
	C55.793331,88.518463 55.759865,88.225967 56.064209,87.864777 
	C56.594978,86.677605 56.821404,85.851616 57.047829,85.025635 
	C57.345074,83.946411 57.642315,82.867188 57.961304,81.453972 
	C57.983047,81.119980 58.170345,81.063492 58.310722,80.975174 
	C58.451103,80.886856 58.672897,80.717514 58.672897,80.717514 
	C58.672897,80.717514 58.927750,81.001999 59.187218,81.373123 
	C60.575520,84.218864 61.704361,86.693481 62.833199,89.168098 
	C62.833199,89.168098 62.858456,89.101334 62.832726,89.438202 
	C63.131268,90.362976 63.455536,90.950882 63.779800,91.538780 
	C63.779800,91.538780 63.743961,91.823021 63.843735,92.234879 
	C64.313240,93.397057 64.682961,94.147369 65.052689,94.897682 
	C65.052689,94.897682 65.013023,94.948540 65.031784,95.304214 
	C65.653893,96.875145 66.257240,98.090408 66.860588,99.305679 
	C66.860588,99.305679 66.862022,99.683861 66.971695,99.837898 
M56.455437,95.979340 
	C56.455437,95.979340 56.517361,95.956078 56.455437,95.979340 
z"/>
<path fill="#D9F2FA" opacity="1.000000" stroke="none" 
	d="
M62.869373,88.768494 
	C61.704361,86.693481 60.575520,84.218864 59.371677,81.422562 
	C60.499630,83.523544 61.702587,85.946213 62.869373,88.768494 
z"/>
<path fill="#D9F2FA" opacity="1.000000" stroke="none" 
	d="
M66.889740,98.934891 
	C66.257240,98.090408 65.653893,96.875145 65.062195,95.314919 
	C65.688866,96.168007 66.303879,97.366058 66.889740,98.934891 
z"/>
<path fill="#D9F2FA" opacity="1.000000" stroke="none" 
	d="
M65.050674,94.577225 
	C64.682961,94.147369 64.313240,93.397057 63.950882,92.329956 
	C64.321724,92.761040 64.685196,93.508911 65.050674,94.577225 
z"/>
<path fill="#D9F2FA" opacity="1.000000" stroke="none" 
	d="
M63.763168,91.196854 
	C63.455536,90.950882 63.131268,90.362976 62.798424,89.428368 
	C63.108738,89.672745 63.427635,90.263840 63.763168,91.196854 
z"/>
<path fill="#D9F2FA" opacity="1.000000" stroke="none" 
	d="
M58.619057,80.648811 
	C58.672897,80.717514 58.451103,80.886856 58.314163,80.877419 
	C58.223186,80.659233 58.352516,80.563271 58.619057,80.648811 
z"/>
<path fill="#E7F7FB" opacity="1.000000" stroke="none" 
	d="
M143.120316,87.024567 
	C143.686783,86.114082 144.473999,85.467819 145.607513,85.219513 
	C146.002686,86.500275 146.051544,87.383087 146.100403,88.265900 
	C145.948120,88.562988 145.795822,88.860085 145.403931,89.253944 
	C144.556564,88.663406 143.948807,87.976097 143.120316,87.024567 
z"/>
<path fill="#E7F7FB" opacity="1.000000" stroke="none" 
	d="
M148.007919,84.111923 
	C152.320999,84.061440 156.811447,83.260506 160.885071,84.223236 
	C163.619247,84.869408 166.738892,87.549828 167.970596,90.136833 
	C170.662262,95.790237 167.215179,99.113556 159.719925,98.647926 
	C159.091125,95.527161 158.454636,92.368271 157.470856,89.030228 
	C154.687134,87.910492 152.250702,86.969910 149.292664,85.756668 
	C148.516693,85.026649 148.262299,84.569290 148.007919,84.111923 
z"/>
<path fill="#EDF9FB" opacity="1.000000" stroke="none" 
	d="
M147.717590,84.000458 
	C148.262299,84.569290 148.516693,85.026649 148.882568,85.720795 
	C148.222488,86.647751 147.450897,87.337921 146.389862,88.146988 
	C146.051544,87.383087 146.002686,86.500275 145.928360,85.175835 
	C146.411011,84.452469 146.919128,84.170731 147.717590,84.000458 
z"/>
<path fill="#287BCE" opacity="1.000000" stroke="none" 
	d="
M53.565094,93.792030 
	C52.417942,97.584358 51.014084,101.646515 49.294651,105.853226 
	C50.422180,102.019135 51.865284,98.040497 53.565094,93.792030 
z"/>
<path fill="#287BCE" opacity="1.000000" stroke="none" 
	d="
M48.757889,106.246376 
	C50.087776,106.967323 51.188339,107.960556 52.659142,108.991318 
	C51.238304,110.065163 49.447227,111.101463 46.345722,112.895981 
	C47.364960,109.918213 47.946762,108.218437 48.757889,106.246376 
z"/>
<path fill="#287BCE" opacity="1.000000" stroke="none" 
	d="
M56.337677,107.890259 
	C57.286060,107.344795 58.592335,106.776619 60.297421,106.261139 
	C59.362675,106.831741 58.029121,107.349648 56.337677,107.890259 
z"/>
<path fill="#287BCE" opacity="1.000000" stroke="none" 
	d="
M56.834232,85.275406 
	C56.821404,85.851616 56.594978,86.677605 56.155983,87.749687 
	C56.169155,87.172256 56.394897,86.348717 56.834232,85.275406 
z"/>
<path fill="#287BCE" opacity="1.000000" stroke="none" 
	d="
M53.327595,109.027115 
	C53.562622,108.742554 54.122990,108.447563 55.006294,108.134323 
	C54.770466,108.416283 54.211700,108.716484 53.327595,109.027115 
z"/>
<path fill="#287BCE" opacity="1.000000" stroke="none" 
	d="
M54.606037,91.021988 
	C54.694489,91.404175 54.540516,91.988174 54.189369,92.809044 
	C54.116001,92.438545 54.239807,91.831169 54.606037,91.021988 
z"/>
<path fill="#287BCE" opacity="1.000000" stroke="none" 
	d="
M55.533817,88.749863 
	C55.606663,89.166298 55.419994,89.814140 55.014626,90.727036 
	C54.955383,90.321815 55.114845,89.651543 55.533817,88.749863 
z"/>
<path fill="#EFFBFC" opacity="1.000000" stroke="none" 
	d="
M106.811546,85.324509 
	C107.587540,84.916023 108.101997,84.706055 108.839500,84.329666 
	C112.668785,83.765793 113.333588,85.299118 113.261574,88.844032 
	C113.035400,99.975975 113.388794,111.119690 113.710320,122.621239 
	C116.335846,124.847328 118.768799,126.711029 121.950172,129.148041 
	C113.197281,129.148041 105.112297,129.148041 97.027313,129.148041 
	C104.910774,125.984222 101.988762,119.359085 102.082451,114.098862 
	C102.214691,106.673882 101.697311,99.237343 101.204910,91.467789 
	C102.818115,89.260902 104.684067,87.391960 106.811546,85.324509 
z"/>
<path fill="#0173E7" opacity="1.000000" stroke="none" 
	d="
M157.674469,131.949478 
	C157.110046,132.141678 156.160950,132.333054 155.099594,132.254471 
	C155.754822,131.972565 156.522308,131.960617 157.674469,131.949478 
z"/>
<path fill="#287BCE" opacity="1.000000" stroke="none" 
	d="
M56.486397,95.967712 
	C56.517361,95.956078 56.455437,95.979340 56.486397,95.967712 
z"/>
</svg>