<?xml version="1.0" encoding="UTF-8"?>
<svg version="1.1" xmlns="http://www.w3.org/2000/svg" width="1200" height="675">
<path d="M0 0 C0.99 0.33 1.98 0.66 3 1 C2.8676788 1.56167374 2.73535761 2.12334747 2.59902668 2.70204163 C-0.69458333 16.68296223 -3.987145 30.66412948 -7.27868176 44.64553833 C-8.87078112 51.40817202 -10.46318603 58.17073345 -12.05639648 64.93310547 C-12.67239182 67.54784484 -13.28835692 70.16259133 -13.90429688 72.77734375 C-14.05701498 73.425644 -14.20973309 74.07394424 -14.36707902 74.74188995 C-16.06480754 81.94950426 -17.76063289 89.15755962 -19.45187378 96.36669922 C-19.60427438 97.01630867 -19.75667498 97.66591812 -19.91369379 98.33521271 C-20.52859849 100.95644654 -21.14345682 103.57769121 -21.75805259 106.1989975 C-23.63559772 114.20635061 -25.52183261 122.21156262 -27.42074484 130.21387672 C-28.82304801 136.12469919 -30.21648915 142.03757441 -31.60704994 147.95117188 C-32.19061183 150.42541293 -32.77738996 152.8988978 -33.36751366 155.37158203 C-34.17828397 158.77054649 -34.97779842 162.17197065 -35.7746582 165.57421875 C-36.01711336 166.57833298 -36.25956852 167.5824472 -36.5093708 168.61698914 C-36.72250357 169.53704239 -36.93563633 170.45709564 -37.15522766 171.4050293 C-37.34371434 172.20095993 -37.53220102 172.99689056 -37.72639942 173.81694031 C-38.17062126 177.36138743 -37.43934641 179.38043625 -35.390625 182.26953125 C-34.68421875 183.10871094 -33.9778125 183.94789063 -33.25 184.8125 C-32.43660156 185.781875 -31.62320313 186.75125 -30.78515625 187.75 C-26.66234719 192.57554372 -22.50723892 197.37310334 -18.33984375 202.16015625 C-11.56605863 209.94183966 -4.80862249 217.7339875 1.6875 225.75 C5.24267904 230.13151795 8.96769537 234.31710681 12.765625 238.48828125 C15.00134533 241.00151232 17.13377682 243.57311479 19.25 246.1875 C22.85470085 250.63852192 26.55370267 254.99198605 30.3125 259.3125 C30.86357422 259.94599365 31.41464844 260.5794873 31.98242188 261.23217773 C33.10162485 262.51831655 34.22092837 263.80436788 35.34033203 265.09033203 C41.54872623 272.23391241 47.72823972 279.39645872 53.6875 286.75 C56.53458501 290.2588399 59.45812552 293.65866637 62.5 297 C69.44814252 304.639319 75.90865184 312.66321369 82 321 C76.31284198 320.36586446 70.81120204 319.40508549 65.22900391 318.15820312 C63.97385986 317.88241676 63.97385986 317.88241676 62.69335938 317.60105896 C59.95361765 316.9980606 57.21507399 316.38980894 54.4765625 315.78125 C52.56470006 315.35884721 50.6527831 314.93669115 48.74081421 314.51477051 C44.74775382 313.63276912 40.75526475 312.74823913 36.76318359 311.86181641 C31.63934425 310.72424074 26.51427371 309.5923291 21.38878822 308.46219635 C17.4473762 307.59262038 13.50654671 306.72042883 9.5658989 305.84739685 C7.67535894 305.42881947 5.78465522 305.01098105 3.89378738 304.59388733 C1.26014752 304.01246694 -1.37270746 303.4276194 -4.00537109 302.84179688 C-4.7897757 302.66929916 -5.5741803 302.49680145 -6.38235474 302.31907654 C-11.77130045 301.11434978 -11.77130045 301.11434978 -14 300 C-14.68603516 297.86694336 -14.68603516 297.86694336 -15.2890625 295.08984375 C-15.50820313 294.10048828 -15.72734375 293.11113281 -15.953125 292.09179688 C-16.17484375 291.05087891 -16.3965625 290.00996094 -16.625 288.9375 C-16.85445312 287.89271484 -17.08390625 286.84792969 -17.3203125 285.77148438 C-17.88775336 283.18253544 -18.44727475 280.59212352 -19 278 C-24.45842722 276.54582281 -29.91749865 275.09408558 -35.37683105 273.64331055 C-38.5384476 272.80227235 -41.69940197 271.95877539 -44.86035156 271.11523438 C-57.70491411 267.6943434 -70.56252135 264.33196258 -83.43920898 261.03410339 C-89.81211655 259.401783 -96.18200089 257.75779332 -102.5513916 256.11180973 C-107.10540131 254.93593218 -111.66097764 253.76695179 -116.22045898 252.61245728 C-120.5770813 251.50927893 -124.92923345 250.38991389 -129.27867889 249.25878334 C-130.900209 248.84028743 -132.52331553 248.42784716 -134.14801788 248.02184105 C-136.39189143 247.46022163 -138.62919165 246.87730036 -140.86621094 246.2890625 C-142.7596524 245.80493896 -142.7596524 245.80493896 -144.69134521 245.31103516 C-149.91869063 243.23973003 -152.92492276 239.58017158 -155.69140625 234.8046875 C-156.15482422 234.01634521 -156.61824219 233.22800293 -157.09570312 232.41577148 C-157.57974609 231.57731689 -158.06378906 230.7388623 -158.5625 229.875 C-159.62444395 228.07051978 -160.68829468 226.26716054 -161.75390625 224.46484375 C-162.29289551 223.55202637 -162.83188477 222.63920898 -163.38720703 221.69873047 C-165.855958 217.56770213 -168.41911407 213.49913149 -171 209.4375 C-171.48573486 208.67252197 -171.97146973 207.90754395 -172.47192383 207.11938477 C-173.46310091 205.56000034 -174.45488616 204.00100232 -175.44726562 202.44238281 C-178.22543151 198.07245019 -180.98651223 193.6917234 -183.75 189.3125 C-184.76555476 187.70438272 -185.78117296 186.0963055 -186.796875 184.48828125 C-187.53125 183.32552083 -188.265625 182.16276042 -189 181 C-192.44955334 182.27800516 -195.38090029 183.76118437 -198.42578125 185.8203125 C-199.22177734 186.35527344 -200.01777344 186.89023438 -200.83789062 187.44140625 C-201.65451172 187.99699219 -202.47113281 188.55257812 -203.3125 189.125 C-204.56643555 189.96998047 -204.56643555 189.96998047 -205.84570312 190.83203125 C-207.89999052 192.21720789 -209.95127038 193.60662219 -212 195 C-212.66 194.67 -213.32 194.34 -214 194 C-211.83626676 182.98437126 -208.91376144 169.58046126 -200 162 C-183.23369675 153.28329317 -153.06627041 152.01620127 -135 157 C-133.33377103 157.03819436 -131.66603721 157.04580171 -130 157 C-129.74801346 155.90641174 -129.49602692 154.81282349 -129.23640442 153.68609619 C-126.85931024 143.38130534 -124.46202374 133.08139586 -122.04488087 122.785923 C-120.80284379 117.49272266 -119.5679842 112.19805914 -118.34936523 106.89941406 C-117.17309127 101.78608901 -115.97817842 96.67745202 -114.77020836 91.57152557 C-114.31261149 89.62265091 -113.8617562 87.67218062 -113.41776466 85.72016144 C-112.79473309 82.98632031 -112.14797604 80.25913354 -111.49536133 77.53222656 C-111.22777763 76.31950073 -111.22777763 76.31950073 -110.95478821 75.08227539 C-109.74314397 70.15872435 -108.46868911 67.80732871 -104 65 C-103.195625 64.46383057 -102.39125 63.92766113 -101.5625 63.37524414 C-100.716875 62.85051514 -99.87125 62.32578613 -99 61.78515625 C-98.04158203 61.18832031 -97.08316406 60.59148437 -96.09570312 59.9765625 C-94.56333008 59.02910156 -94.56333008 59.02910156 -93 58.0625 C-91.93201172 57.39863281 -90.86402344 56.73476562 -89.76367188 56.05078125 C-86.51128445 54.03032955 -83.25610063 52.01446102 -80 50 C-79.07960938 49.43007324 -78.15921875 48.86014648 -77.2109375 48.27294922 C-73.78492814 46.15150798 -70.35852247 44.0307126 -66.9309082 41.91186523 C-57.30087052 35.95653052 -47.70362508 29.9489115 -38.10546875 23.94238281 C-34.9151021 21.94689876 -31.72337168 19.95361274 -28.53125 17.9609375 C-27.4688208 17.29755371 -26.4063916 16.63416992 -25.31176758 15.95068359 C-23.30139153 14.69547498 -21.29082726 13.44056777 -19.2800293 12.18603516 C-18.35617432 11.60901855 -17.43231934 11.03200195 -16.48046875 10.4375 C-15.58247559 9.87933594 -14.68448242 9.32117187 -13.75927734 8.74609375 C-11.81122128 7.5133476 -9.88068229 6.25270829 -7.96337891 4.97265625 C-6.98159668 4.32167969 -5.99981445 3.67070312 -4.98828125 3 C-4.10309814 2.401875 -3.21791504 1.80375 -2.3059082 1.1875 C-1.5449585 0.795625 -0.78400879 0.40375 0 0 Z " fill="#E5D3BA" transform="translate(345,19)"/>
<path d="M0 0 C16.92359463 -0.52387978 33.65729184 3.66270059 46.40234375 15.16015625 C48.8025515 17.43403728 51.11867765 19.76999795 53.40234375 22.16015625 C54.40004226 23.16245245 55.39934527 24.16316375 56.40234375 25.16015625 C56.65628906 24.5775 56.91023437 23.99484375 57.171875 23.39453125 C62.59028196 13.55539226 76.05147938 7.08978239 86.421875 3.8046875 C105.05420242 -1.57675623 127.81030757 -2.30545491 145.40234375 7.16015625 C160.55473815 16.1996688 169.87538008 28.64343241 174.33984375 45.66015625 C176.09469739 53.56280842 176.54752258 61.27819075 176.51586914 69.33984375 C176.51601517 70.32612259 176.51616119 71.31240143 176.51631165 72.3285675 C176.51561917 75.56412005 176.50785807 78.79961386 176.5 82.03515625 C176.49813346 84.288167 176.49671067 86.54117815 176.49571228 88.79418945 C176.49190572 94.70588311 176.4820914 100.61755195 176.4710083 106.52923584 C176.45894919 113.63204943 176.45438308 120.73487135 176.44855499 127.83769226 C176.43887859 138.61186415 176.419709 149.38598166 176.40234375 160.16015625 C160.89234375 160.16015625 145.38234375 160.16015625 129.40234375 160.16015625 C129.36367188 150.06486328 129.36367188 150.06486328 129.32421875 139.765625 C129.29903407 135.48629073 129.2726886 131.207026 129.2421875 126.92773438 C129.19394982 120.14461051 129.14986847 113.36164774 129.13134766 106.57836914 C129.11613542 101.10574088 129.08160869 95.6335358 129.03403473 90.16109657 C129.01926799 88.07970178 129.01130546 85.99824655 129.0104599 83.91679955 C129.17913686 68.57130733 129.17913686 68.57130733 124.40234375 54.16015625 C123.82484375 53.04640625 123.24734375 51.93265625 122.65234375 50.78515625 C118.92771991 46.43976177 114.12024823 43.13149904 108.40234375 42.16015625 C96.701599 41.49519589 87.42658882 41.52034504 78.08984375 49.28515625 C69.38964935 57.63464514 67.43883903 68.0785446 67.12758446 79.78364754 C67.04884719 84.24497975 67.01564316 88.70607122 66.98828125 93.16796875 C66.96954622 95.10424605 66.94997111 97.04051539 66.92959595 98.97677612 C66.87851532 104.04336833 66.83876155 109.10998694 66.80145264 114.17669678 C66.75417984 120.27177591 66.69268618 126.36672652 66.63360596 132.46170044 C66.54568754 141.69446647 66.47571303 150.92721155 66.40234375 160.16015625 C51.22234375 160.16015625 36.04234375 160.16015625 20.40234375 160.16015625 C20.35335937 154.35421875 20.304375 148.54828125 20.25390625 142.56640625 C20.21846129 138.8567549 20.18246799 135.14712467 20.14453125 131.4375 C20.08455664 125.56790422 20.026456 119.69833749 19.98046875 113.82861328 C19.94320523 109.08873807 19.89674285 104.34902917 19.84428024 99.60929871 C19.8259517 97.81392883 19.8107672 96.01852362 19.79899979 94.22309875 C19.93376914 70.44319046 19.93376914 70.44319046 11.21484375 48.84765625 C4.5108912 42.44165715 -2.31782102 41.57199077 -11.28588867 41.68969727 C-20.25318915 42.06114736 -27.27854363 44.82496346 -33.84375 51.05859375 C-44.08520694 63.33009449 -42.91554078 80.66874196 -43.01171875 95.70703125 C-43.03046412 97.57318953 -43.05003994 99.43933964 -43.07040405 101.30548096 C-43.12137578 106.17805118 -43.16118686 111.05064879 -43.19854736 115.92333984 C-43.24590732 121.79069898 -43.30735304 127.65792602 -43.36639404 133.525177 C-43.4541792 142.40344906 -43.52424866 151.28170131 -43.59765625 160.16015625 C-58.77765625 160.16015625 -73.95765625 160.16015625 -89.59765625 160.16015625 C-89.59765625 108.35015625 -89.59765625 56.54015625 -89.59765625 3.16015625 C-75.07765625 3.16015625 -60.55765625 3.16015625 -45.59765625 3.16015625 C-45.10265625 10.58515625 -45.10265625 10.58515625 -44.59765625 18.16015625 C-43.21578125 16.96390625 -41.83390625 15.76765625 -40.41015625 14.53515625 C-28.7944242 5.26553957 -14.68821765 0.90558936 0 0 Z " fill="#060606" transform="translate(276.59765625,371.83984375)"/>
<path d="M0 0 C15.28099654 13.2581097 24.19227813 29.89994787 27.18359375 49.89453125 C27.18359375 58.80453125 27.18359375 67.71453125 27.18359375 76.89453125 C-11.75640625 77.22453125 -50.69640625 77.55453125 -90.81640625 77.89453125 C-85.84775554 90.31615804 -81.05971459 96.97828393 -69.00390625 102.73828125 C-54.72227725 107.91887216 -37.78133731 107.97826359 -23.81640625 101.89453125 C-18.04555427 99.16423569 -12.92679079 95.70013676 -7.81640625 91.89453125 C-1.57339021 98.03594305 4.52850546 104.19845656 10.18359375 110.89453125 C11.3289695 112.22825768 12.47478131 113.5616098 13.62109375 114.89453125 C14.46671875 115.88453125 15.31234375 116.87453125 16.18359375 117.89453125 C11.47836138 128.88991637 -1.35983992 134.59790744 -11.81640625 138.89453125 C-37.31396846 148.36826716 -67.60575607 146.96360312 -92.53515625 136.36328125 C-112.49632134 127.00096488 -127.33125918 111.51120775 -135.0078125 90.69921875 C-141.4434697 68.37650441 -140.27113844 44.75824188 -129.81640625 23.89453125 C-122.16098933 10.76243205 -112.11036208 0.28868771 -98.81640625 -7.10546875 C-98.00558594 -7.56566406 -97.19476562 -8.02585937 -96.359375 -8.5 C-66.71260478 -24.35311946 -26.17500508 -21.41591325 0 0 Z M-84.81640625 30.89453125 C-89.12783653 36.57547468 -91.81640625 41.66749969 -91.81640625 48.89453125 C-67.06640625 48.89453125 -42.31640625 48.89453125 -16.81640625 48.89453125 C-18.09827472 39.92145197 -20.9180994 32.7556777 -27.65234375 26.49609375 C-45.49832075 13.28878225 -69.77435271 14.11367152 -84.81640625 30.89453125 Z " fill="#B1445D" transform="translate(1079.81640625,390.10546875)"/>
<path d="M0 0 C15.51 0 31.02 0 47 0 C47.05607422 9.64476562 47.05607422 9.64476562 47.11328125 19.484375 C47.14358513 23.57684886 47.17474885 27.66928049 47.20898438 31.76171875 C47.26314986 38.24623391 47.31426577 44.73066557 47.34643555 51.21533203 C47.37259455 56.44801135 47.41308483 61.68040756 47.46318626 66.91291046 C47.4797702 68.90137438 47.4913369 70.88988717 47.49761391 72.87841034 C47.24581692 93.96127904 47.24581692 93.96127904 57 112 C66.17323101 118.64103703 76.0341384 118.93850788 87 118 C95.79870307 116.13463 102.66625003 110.63488834 107.8125 103.375 C114.11756509 91.89424069 113.46914014 78.60438562 113.51171875 65.91796875 C113.52859803 64.0083961 113.54675254 62.09883435 113.56611633 60.18928528 C113.61327004 55.20656744 113.6433021 50.22389376 113.66955566 45.24102783 C113.70482539 39.23929538 113.7617379 33.23773244 113.81494904 27.23613739 C113.89305601 18.15744764 113.94396888 9.07897354 114 0 C129.18 0 144.36 0 160 0 C160 51.81 160 103.62 160 157 C145.48 157 130.96 157 116 157 C115.67 151.72 115.34 146.44 115 141 C113.80375 142.175625 112.6075 143.35125 111.375 144.5625 C100.51007182 154.19743631 86.3862538 159.16601427 72 160 C71.3296875 160.04125 70.659375 160.0825 69.96875 160.125 C51.31837555 160.6817276 33.84002659 155.33293033 19.48828125 143.4140625 C4.2463079 128.6267163 0.42592331 108.12767723 -0.05421829 87.69242096 C-0.1375335 81.4435342 -0.11501372 75.19456816 -0.09765625 68.9453125 C-0.0957869 66.94749996 -0.09436544 64.94968695 -0.09336853 62.95187378 C-0.08958406 57.74060764 -0.07978943 52.52937019 -0.06866455 47.31811523 C-0.05654476 41.04030449 -0.05202878 34.76248406 -0.04621124 28.48466492 C-0.03657478 18.98975677 -0.01738995 9.49491135 0 0 Z " fill="#B0425C" transform="translate(581,375)"/>
<path d="M0 0 C15.84 0 31.68 0 48 0 C50.0625 5.094375 52.125 10.18875 54.25 15.4375 C60.64402217 31.21758167 67.06567085 46.9863137 73.5 62.75 C73.92188599 63.78381805 74.34377197 64.81763611 74.77844238 65.88278198 C79.83146147 78.26381027 84.89901868 90.63864968 90 103 C92.23529331 99.64706003 93.72537793 96.16410703 95.28125 92.46875 C95.76986008 91.31814842 95.76986008 91.31814842 96.26834106 90.14430237 C97.34871502 87.59752524 98.42445893 85.0488215 99.5 82.5 C100.25553889 80.71534663 101.01123816 78.93076115 101.76708984 77.14624023 C108.88085602 60.33607595 115.9381338 43.50198549 122.9765625 26.66015625 C123.28022736 25.93421768 123.58389221 25.20827911 123.89675903 24.46034241 C127.29562117 16.31950583 130.6409363 8.15772612 134 0 C148.85 0 163.7 0 179 0 C178.06877084 4.65614579 176.61666477 8.58856393 174.74609375 12.90234375 C174.41401413 13.67898376 174.08193451 14.45562378 173.73979187 15.25579834 C173.0206096 16.9363493 172.2992608 18.61597441 171.57598877 20.29476929 C170.0212323 23.90376638 168.4770208 27.51724523 166.93206787 31.13044739 C166.13170807 33.00192626 165.33079861 34.87317015 164.52935791 36.7441864 C161.01633714 44.94781639 157.54439859 53.1683084 154.08779907 61.39584351 C152.45315855 65.28661851 150.81625192 69.17644019 149.1796875 73.06640625 C148.68040489 74.25336845 148.68040489 74.25336845 148.17103577 75.46430969 C128.98444961 121.07280556 128.98444961 121.07280556 119.6517334 142.93011475 C118.89563019 144.70166348 118.14163302 146.47411062 117.38769531 148.24658203 C116.94780273 149.27380371 116.50791016 150.30102539 116.0546875 151.359375 C115.48983643 152.68146973 115.48983643 152.68146973 114.91357422 154.03027344 C114 156 114 156 113 157 C111.49581261 157.09311889 109.98728644 157.11746028 108.48022461 157.11352539 C107.03884377 157.11341209 107.03884377 157.11341209 105.56834412 157.11329651 C104.523564 157.10813522 103.47878387 157.10297394 102.40234375 157.09765625 C100.80635094 157.09553383 100.80635094 157.09553383 99.17811584 157.09336853 C95.76454917 157.08775064 92.351047 157.07519511 88.9375 157.0625 C86.62955824 157.05748731 84.32161545 157.052924 82.01367188 157.04882812 C76.34242574 157.0377754 70.67121747 157.02101987 65 157 C58.04410104 140.89621857 51.19979546 124.74848034 44.4375 108.5625 C38.50794007 94.37023134 32.55825178 80.18684132 26.57122803 66.01870728 C25.38295971 63.20633888 24.19553235 60.39361674 23.00830078 57.58081055 C19.48856464 49.24385098 15.96391415 40.90908721 12.4196167 32.58253479 C10.90549217 29.02364914 9.39534278 25.46308464 7.88580322 21.9022522 C7.17582134 20.23049418 6.46389668 18.55955978 5.74993896 16.88949585 C4.77248565 14.60282164 3.80153606 12.31349055 2.83203125 10.0234375 C2.54243027 9.35072311 2.25282928 8.67800873 1.95445251 7.98490906 C0.75743946 5.14120548 0 3.12129016 0 0 Z " fill="#B0435C" transform="translate(760,375)"/>
<path d="M0 0 C2.6935933 1.21379564 3.92876085 3.09724324 5.7199707 5.42822266 C9.40351629 10.09605993 13.18370909 14.63693101 17.0949707 19.11572266 C18.21100679 20.39814364 19.32689126 21.68069657 20.44262695 22.96337891 C20.99708496 23.60033691 21.55154297 24.23729492 22.12280273 24.89355469 C28.33119694 32.03713507 34.51071042 39.19968138 40.4699707 46.55322266 C44.02514974 50.93474061 47.75016607 55.12032947 51.5480957 59.29150391 C53.78381603 61.80473497 55.91624752 64.37633745 58.0324707 66.99072266 C61.63717155 71.44174458 65.33617337 75.79520871 69.0949707 80.11572266 C69.64604492 80.74921631 70.19711914 81.38270996 70.76489258 82.03540039 C71.88409556 83.3215392 73.00339908 84.60759053 74.12280273 85.89355469 C80.33119694 93.03713507 86.51071042 100.19968138 92.4699707 107.55322266 C95.31705571 111.06206256 98.24059622 114.46188903 101.2824707 117.80322266 C108.23061322 125.44254166 114.69112254 133.46643635 120.7824707 141.80322266 C115.09531269 141.16908712 109.59367274 140.20830815 104.01147461 138.96142578 C103.17471191 138.77756821 102.33794922 138.59371063 101.47583008 138.40428162 C98.73608836 137.80128325 95.9975447 137.19303159 93.2590332 136.58447266 C91.34717077 136.16206987 89.43525381 135.7399138 87.52328491 135.31799316 C83.53022453 134.43599178 79.53773545 133.55146178 75.5456543 132.66503906 C70.42181495 131.52746339 65.29674441 130.39555175 60.17125893 129.26541901 C56.2298469 128.39584304 52.28901741 127.52365149 48.3483696 126.65061951 C46.45782964 126.23204213 44.56712592 125.81420371 42.67625809 125.39710999 C40.04261823 124.8156896 37.40976324 124.23084206 34.77709961 123.64501953 C33.99269501 123.47252182 33.20829041 123.30002411 32.40011597 123.12229919 C27.01117026 121.91757243 27.01117026 121.91757243 24.7824707 120.80322266 C24.09643555 118.67016602 24.09643555 118.67016602 23.4934082 115.89306641 C23.27426758 114.90371094 23.05512695 113.91435547 22.8293457 112.89501953 C22.60762695 111.85410156 22.3859082 110.81318359 22.1574707 109.74072266 C21.92801758 108.6959375 21.69856445 107.65115234 21.4621582 106.57470703 C20.89471734 103.98575809 20.33519596 101.39534617 19.7824707 98.80322266 C14.32363374 97.34893631 8.86425667 95.8966933 3.40454102 94.44570923 C1.32176278 93.89201319 -0.76091944 93.33795589 -2.84350586 92.78353882 C-17.71645469 88.82510214 -32.60153308 84.91659409 -47.49833679 81.04899025 C-52.99165879 79.6219198 -58.48388666 78.19064185 -63.9761734 76.75959301 C-69.47260486 75.32810716 -74.970881 73.9039736 -80.47045135 72.48459816 C-83.94020598 71.58727743 -87.40818191 70.68322938 -90.87571716 69.77737427 C-92.5125469 69.35130141 -94.15012842 68.92810564 -95.78846741 68.50787354 C-98.04026805 67.92990378 -100.28926491 67.34207554 -102.5378418 66.75170898 C-103.80901855 66.42229813 -105.08019531 66.09288727 -106.38989258 65.75349426 C-109.2175293 64.80322266 -109.2175293 64.80322266 -110.2175293 62.80322266 C-109.51072021 62.40232422 -108.80391113 62.00142578 -108.07568359 61.58837891 C-93.71372531 53.43371747 -79.41788101 45.18833073 -65.22802734 36.73681641 C-56.54316949 31.57042649 -47.80649774 26.50028753 -39.03491211 21.48266602 C-33.22130097 18.14786726 -27.45233984 14.75259478 -21.7253418 11.27197266 C-20.47934686 10.51855401 -19.2332541 9.76529712 -17.98706055 9.01220703 C-15.59842028 7.56842221 -13.22021429 6.10916998 -10.84643555 4.64111328 C-9.77522461 3.99335938 -8.70401367 3.34560547 -7.6003418 2.67822266 C-6.65562012 2.09814453 -5.71089844 1.51806641 -4.73754883 0.92041016 C-2.2175293 -0.19677734 -2.2175293 -0.19677734 0 0 Z " fill="#B0415B" transform="translate(306.217529296875,198.19677734375)"/>
<path d="M0 0 C15.18 0 30.36 0 46 0 C46.09048746 21.77580723 46.16409064 43.55146092 46.20724869 65.32740879 C46.22782528 75.43961406 46.25585156 85.55169373 46.30175781 95.66381836 C46.34177631 104.48324754 46.3674684 113.3025857 46.37635398 122.12210315 C46.38154343 126.78682954 46.39363693 131.45129567 46.42292023 136.11593819 C46.45032729 140.51790143 46.45839464 144.91950036 46.45243073 149.32154083 C46.45351977 150.9262052 46.46132172 152.53088338 46.4768219 154.13547325 C46.63851307 171.75716391 43.21649687 187.59337787 30.6875 200.875 C15.69333758 214.8577518 -2.66876933 216.6647782 -22.27099609 216.13623047 C-32.31261529 215.63495801 -41.34002364 213.15523299 -50 208 C-48.54948923 200.53574999 -46.22795223 193.61361403 -43.5625 186.5 C-43.16740234 185.40429688 -42.77230469 184.30859375 -42.36523438 183.1796875 C-41.97787109 182.14070312 -41.59050781 181.10171875 -41.19140625 180.03125 C-40.84279541 179.08830078 -40.49418457 178.14535156 -40.13500977 177.17382812 C-39 175 -39 175 -36 174 C-33.72265625 174.77734375 -33.72265625 174.77734375 -31.0625 175.9375 C-24.42130346 178.46203431 -17.74853826 179.44335066 -10.828125 177.33984375 C-6.02467161 174.96890842 -4.13400433 171.6783941 -2 167 C-0.98517157 163.05389318 -0.86382722 159.31441927 -0.84178162 155.24858093 C-0.83684364 154.58277333 -0.83190566 153.91696572 -0.82681805 153.23098212 C-0.81150255 151.00775026 -0.80309865 148.78454715 -0.79467773 146.5612793 C-0.78509453 144.96450042 -0.77508419 143.36772405 -0.76467896 141.77095032 C-0.73767178 137.44082209 -0.71663957 133.11068301 -0.69667697 128.78051734 C-0.67479157 124.25346388 -0.64741538 119.7264437 -0.62062073 115.19941711 C-0.57072838 106.62893777 -0.52577672 98.05843991 -0.48259836 89.4879244 C-0.43319643 79.7298101 -0.37828927 69.97172922 -0.32291877 60.21364725 C-0.2091518 40.14246115 -0.10302799 20.0712443 0 0 Z " fill="#B0425B" transform="translate(495,375)"/>
<path d="M0 0 C-0.1323212 0.56167374 -0.26464239 1.12334747 -0.40097332 1.70204163 C-3.69458333 15.68296223 -6.987145 29.66412948 -10.27868176 43.64553833 C-11.87078112 50.40817202 -13.46317999 57.17073487 -15.05639648 63.93310547 C-16.90708278 71.78850271 -18.75688581 79.64410751 -20.60546875 87.5 C-20.83425854 88.4722842 -20.83425854 88.4722842 -21.06767035 89.46421051 C-27.77274225 117.96201649 -34.3998958 146.47770276 -41 175 C-42.32 175 -43.64 175 -45 175 C-46.31762695 173.54492188 -46.31762695 173.54492188 -47.48828125 171.46875 C-47.93937256 170.69023682 -48.39046387 169.91172363 -48.85522461 169.10961914 C-49.33612549 168.24844482 -49.81702637 167.38727051 -50.3125 166.5 C-51.38043345 164.65356988 -52.45085561 162.8085775 -53.5234375 160.96484375 C-54.08772461 159.9888623 -54.65201172 159.01288086 -55.23339844 158.00732422 C-58.19781052 152.96094112 -61.31914798 148.01470465 -64.4375 143.0625 C-65.71517577 141.02624996 -66.99252032 138.98979205 -68.26953125 136.953125 C-68.89424316 135.95732422 -69.51895508 134.96152344 -70.16259766 133.93554688 C-72.99889412 129.40410537 -75.81356915 124.85939781 -78.625 120.3125 C-79.15270996 119.45938232 -79.68041992 118.60626465 -80.22412109 117.72729492 C-82.36143667 114.27095218 -84.49754991 110.81386995 -86.63232422 107.35595703 C-87.72933766 105.57904924 -88.82683152 103.80243797 -89.92480469 102.02612305 C-91.00667028 100.27478457 -92.08678268 98.52236172 -93.16503906 96.76879883 C-95.89073398 92.34892198 -98.66147305 87.96846863 -101.51953125 83.6328125 C-102.082771 82.76994629 -102.64601074 81.90708008 -103.22631836 81.01806641 C-104.29928969 79.37929456 -105.38418439 77.74824744 -106.48266602 76.12646484 C-106.96018311 75.39379395 -107.4377002 74.66112305 -107.9296875 73.90625 C-108.35491699 73.27009766 -108.78014648 72.63394531 -109.21826172 71.97851562 C-110.29792303 69.24598118 -109.97617771 67.7446517 -109 65 C-107.3996582 63.55297852 -107.3996582 63.55297852 -105.30078125 62.37890625 C-104.51558105 61.92612305 -103.73038086 61.47333984 -102.92138672 61.00683594 C-102.0604541 60.53020508 -101.19952148 60.05357422 -100.3125 59.5625 C-98.4657796 58.49898543 -96.62078451 57.4324705 -94.77734375 56.36328125 C-93.81940918 55.8110791 -92.86147461 55.25887695 -91.87451172 54.68994141 C-87.29624094 51.99835058 -82.83851418 49.12656849 -78.375 46.25 C-70.24213309 41.03388284 -62.04964551 35.92479361 -53.8125 30.875 C-46.20232674 26.20827394 -38.60618828 21.52357301 -31.0625 16.75 C-30.31718018 16.27973389 -29.57186035 15.80946777 -28.80395508 15.32495117 C-24.75507054 12.76485451 -20.72754746 10.17506643 -16.71484375 7.55859375 C-15.40664673 6.71312988 -15.40664673 6.71312988 -14.07202148 5.85058594 C-12.39277218 4.76477234 -10.71881947 3.67071065 -9.05102539 2.56738281 C-7.92748657 1.84373535 -7.92748657 1.84373535 -6.78125 1.10546875 C-6.12189453 0.67387451 -5.46253906 0.24228027 -4.78320312 -0.20239258 C-3 -1 -3 -1 0 0 Z " fill="#B0425C" transform="translate(348,20)"/>
<path d="M0 0 C15.51 0 31.02 0 47 0 C47 51.81 47 103.62 47 157 C31.49 157 15.98 157 0 157 C0 105.19 0 53.38 0 0 Z " fill="#090909" transform="translate(99,375)"/>
<path d="M0 0 C3.90768448 3.80693386 7.51002062 7.79922227 11.0625 11.9375 C11.62759277 12.59282715 12.19268555 13.2481543 12.77490234 13.92333984 C14.51874885 15.94705695 16.25963445 17.97328908 18 20 C19.04295298 21.21225315 20.08592111 22.42449326 21.12890625 23.63671875 C26.39950293 29.76938873 31.63923554 35.92742013 36.85595703 42.10595703 C40.21925507 46.08624131 43.6051467 50.04661042 47 54 C50.85133975 58.4849792 54.68626796 62.98299736 58.5 67.5 C62.29523727 71.99409053 66.1079093 76.47264267 69.9375 80.9375 C70.43419189 81.51669189 70.93088379 82.09588379 71.44262695 82.69262695 C73.99510418 85.66756041 76.55069982 88.6397708 79.109375 91.609375 C83.6983591 96.94120634 88.25877834 102.28329671 92.6875 107.75 C95.53458501 111.2588399 98.45812552 114.65866637 101.5 118 C108.44814252 125.639319 114.90865184 133.66321369 121 142 C115.31284198 141.36586446 109.81120204 140.40508549 104.22900391 139.15820312 C103.39224121 138.97434555 102.55547852 138.79048798 101.69335938 138.60105896 C98.95361765 137.9980606 96.21507399 137.38980894 93.4765625 136.78125 C91.56470006 136.35884721 89.6527831 135.93669115 87.74081421 135.51477051 C83.74775382 134.63276912 79.75526475 133.74823913 75.76318359 132.86181641 C70.63934425 131.72424074 65.51427371 130.5923291 60.38878822 129.46219635 C56.4473762 128.59262038 52.50654671 127.72042883 48.5658989 126.84739685 C46.67535894 126.42881947 44.78465522 126.01098105 42.89378738 125.59388733 C40.26014752 125.01246694 37.62729254 124.4276194 34.99462891 123.84179688 C34.2102243 123.66929916 33.4258197 123.49680145 32.61764526 123.31907654 C27.22869955 122.11434978 27.22869955 122.11434978 25 121 C24.36157227 118.89868164 24.36157227 118.89868164 23.81640625 116.16015625 C23.61080078 115.17982422 23.40519531 114.19949219 23.19335938 113.18945312 C22.77369606 111.10932628 22.35701551 109.02859539 21.94335938 106.94726562 C21.73646484 105.96564453 21.52957031 104.98402344 21.31640625 103.97265625 C21.13537354 103.06781494 20.95434082 102.16297363 20.76782227 101.23071289 C20.13157672 98.64989691 20.13157672 98.64989691 17 97 C17.99 97 18.98 97 20 97 C19.74943848 95.87326874 19.49887695 94.74653748 19.24072266 93.58566284 C16.87953686 82.96393002 14.52500573 72.34074115 12.17697144 61.71609306 C10.96962964 56.25399114 9.75995434 50.792428 8.54492188 45.33203125 C7.37230405 40.06184098 6.20584787 34.79032143 5.04364014 29.51782608 C4.59929294 27.50712712 4.15273269 25.4969159 3.70391846 23.48720932 C3.0753815 20.67095718 2.45475548 17.8530692 1.8359375 15.03466797 C1.64892273 14.20532242 1.46190796 13.37597687 1.26922607 12.52149963 C0.34350555 8.26409933 -0.2067616 4.38824008 0 0 Z " fill="#E6D4BC" transform="translate(306,198)"/>
<path d="M0 0 C1.10730469 0.37125 2.21460938 0.7425 3.35546875 1.125 C4.57169922 1.558125 4.57169922 1.558125 5.8125 2 C5.14492874 8.55927571 3.76993439 14.79263332 2.1875 21.1875 C1.64581989 23.41015297 1.10415381 25.63280937 0.5625 27.85546875 C0.13517578 29.59836182 0.13517578 29.59836182 -0.30078125 31.37646484 C-1.51384472 36.33359262 -2.71198323 41.29427298 -3.90869141 46.25537109 C-4.50818921 48.73918994 -5.10940876 51.22259391 -5.71240234 53.70556641 C-6.98468681 58.95329534 -8.24601621 64.20063682 -9.4140625 69.47265625 C-9.59114746 70.26349609 -9.76823242 71.05433594 -9.95068359 71.86914062 C-10.39721731 73.88100569 -10.83200682 75.89546801 -11.265625 77.91015625 C-12.17484387 80.95758051 -13.23621735 82.55561224 -15.1875 85 C-15.54875977 84.40276123 -15.91001953 83.80552246 -16.28222656 83.19018555 C-23.95694254 70.5133292 -31.71464963 57.89858162 -39.66699219 45.39404297 C-42.43283191 41.0392221 -45.18406504 36.67517017 -47.9375 32.3125 C-48.95306649 30.70439013 -49.96868578 29.0963136 -50.984375 27.48828125 C-52.0859375 25.74414062 -52.0859375 25.74414062 -53.1875 24 C-56.63705334 25.27800516 -59.56840029 26.76118437 -62.61328125 28.8203125 C-63.80727539 29.62275391 -63.80727539 29.62275391 -65.02539062 30.44140625 C-66.25032227 31.27478516 -66.25032227 31.27478516 -67.5 32.125 C-68.33595703 32.68832031 -69.17191406 33.25164062 -70.03320312 33.83203125 C-72.08749052 35.21720789 -74.13877038 36.60662219 -76.1875 38 C-76.8475 37.67 -77.5075 37.34 -78.1875 37 C-76.02376676 25.98437126 -73.10126144 12.58046126 -64.1875 5 C-48.42635785 -3.19412922 -16.91100862 -5.81884167 0 0 Z " fill="#E5D4BB" transform="translate(209.1875,176)"/>
<path d="M0 0 C6.37655438 6.75164582 8.44657521 12.99675781 8.3359375 22.1796875 C7.88254076 28.77912891 5.45711227 33.78302229 0.99609375 38.64453125 C-3.98295874 42.91674539 -10.31255221 45.82201427 -16.875 46.25 C-18.091875 46.3325 -19.30875 46.415 -20.5625 46.5 C-30.20618875 46.2612039 -36.9724287 43.36763025 -43.8359375 36.55859375 C-49.17047612 30.51891497 -49.48029971 24.56612603 -49.28125 16.76171875 C-48.45842674 9.64904459 -45.67366221 4.35130569 -40.125 -0.1875 C-27.54611672 -8.45630037 -12.70481439 -7.73336528 0 0 Z " fill="#090909" transform="translate(142.875,307.75)"/>
<path d="M0 0 C6.76970663 4.76192097 11.204033 9.8030224 13 18 C13.9758936 26.22310349 11.60149981 33.01103362 7.125 39.875 C0.51253902 46.48746098 -6.58884321 48.63314191 -15.6875 49.25 C-25.38122374 49.00996494 -31.8362525 46.0256937 -38.90625 39.44921875 C-43.94749229 33.5520939 -45.15444106 27.5779079 -45 20 C-43.96984163 13.11894217 -41.44489089 7.44873622 -36 3 C-25.01893958 -3.67884402 -11.96001781 -5.88229634 0 0 Z " fill="#B1455E" transform="translate(534,305)"/>
<path d="M0 0 C6 0 6 0 7.53564453 1.35766602 C7.89770996 1.98342529 8.25977539 2.60918457 8.6328125 3.25390625 C9.04660156 3.94419922 9.46039063 4.63449219 9.88671875 5.34570312 C10.29535156 6.07724609 10.70398438 6.80878906 11.125 7.5625 C11.54136719 8.26697266 11.95773437 8.97144531 12.38671875 9.69726562 C13.61470251 11.78560792 14.81058088 13.88950027 16 16 C16.76759073 17.34281306 17.53577062 18.68528962 18.3046875 20.02734375 C18.86414063 21.00832031 19.42359375 21.98929688 20 23 C21.20908987 21.04213367 22.41722437 19.08367734 23.625 17.125 C24.17305298 16.24775269 24.17305298 16.24775269 24.73217773 15.3527832 C26.46001871 12.57364042 28.09937497 9.8105889 29.62109375 6.91015625 C30.09675781 6.01167969 30.57242187 5.11320313 31.0625 4.1875 C31.46597656 3.37667969 31.86945313 2.56585937 32.28515625 1.73046875 C32.85105469 1.15941406 33.41695313 0.58835937 34 0 C36.31 0 38.62 0 41 0 C41 12.54 41 25.08 41 38 C38.36 38 35.72 38 33 38 C32.67 31.4 32.34 24.8 32 18 C28.87302949 23.25614726 28.87302949 23.25614726 25.77832031 28.53125 C25.38225586 29.1809375 24.98619141 29.830625 24.578125 30.5 C24.18012695 31.1703125 23.78212891 31.840625 23.37207031 32.53125 C22.91928711 33.0159375 22.46650391 33.500625 22 34 C20.68 34 19.36 34 18 34 C16.62792969 32.53125 16.62792969 32.53125 15.421875 30.5 C15.02581055 29.8503125 14.62974609 29.200625 14.22167969 28.53125 C13.73602539 27.6959375 13.25037109 26.860625 12.75 26 C11.1825 23.36 9.615 20.72 8 18 C7.67 24.6 7.34 31.2 7 38 C4.69 38 2.38 38 0 38 C0 25.46 0 12.92 0 0 Z " fill="#232323" transform="translate(372,617)"/>
<path d="M0 0 C6.33393082 -0.34548714 11.10261508 0.70657253 17 3 C16.33242874 9.55927571 14.95743439 15.79263332 13.375 22.1875 C12.83331989 24.41015297 12.29165381 26.63280937 11.75 28.85546875 C11.46511719 30.01739746 11.18023437 31.17932617 10.88671875 32.37646484 C9.36844165 38.58083398 7.87286635 44.79067786 6.375 51 C6.08020752 52.21993652 5.78541504 53.43987305 5.48168945 54.69677734 C3.28593025 63.78970202 1.12265023 72.88974343 -1 82 C-1.33 82 -1.66 82 -2 82 C-2.05923614 65.34279869 -1.9508704 48.69573614 -1.62768555 32.04150391 C-1.56106672 28.54987906 -1.50214411 25.05817086 -1.44335938 21.56640625 C-1.40150212 19.32811634 -1.35920227 17.08983466 -1.31640625 14.8515625 C-1.29969376 13.81633453 -1.28298126 12.78110657 -1.26576233 11.71450806 C-1.24581711 10.75765106 -1.22587189 9.80079407 -1.20532227 8.81494141 C-1.18977798 7.97847076 -1.1742337 7.14200012 -1.15821838 6.28018188 C-1.00505115 4.07279517 -0.60864318 2.12273054 0 0 Z " fill="#744C4E" transform="translate(198,175)"/>
<path d="M0 0 C0.66 0 1.32 0 2 0 C3.3046875 1.87890625 3.3046875 1.87890625 4.875 4.5625 C7.85515448 9.38751201 11.10633542 13.79316786 14.6875 18.1875 C18.91313353 23.37507175 23.01516221 28.62501132 27 34 C31.42453528 39.95624419 35.97954388 45.78591485 40.63623047 51.56201172 C45.09726611 57.09989952 49.4397111 62.72063545 53.75585938 68.37207031 C55.95693214 71.25212392 58.16604853 74.12598787 60.375 77 C61.16648437 78.03125 61.95796875 79.0625 62.7734375 80.125 C64.21766544 81.98982766 65.72388399 83.80882956 67.296875 85.56640625 C69.30213437 88.43171953 69.38030516 89.53475354 68.875 92.9375 C68.74996094 93.79988281 68.62492187 94.66226563 68.49609375 95.55078125 C67.90434687 98.47224027 67.09446489 101.22735562 66 104 C62.55436008 102.85145336 62.34246549 102.38046631 60.609375 99.37109375 C60.15506104 98.59580322 59.70074707 97.8205127 59.23266602 97.02172852 C58.74338623 96.16893311 58.25410645 95.3161377 57.75 94.4375 C56.67268799 92.60032059 55.59316339 90.7644373 54.51171875 88.9296875 C53.94114746 87.95999023 53.37057617 86.99029297 52.78271484 85.99121094 C49.78773216 80.96594007 46.67535603 76.01531783 43.5625 71.0625 C42.28501407 69.02613085 41.00766998 66.98967272 39.73046875 64.953125 C39.10575684 63.95732422 38.48104492 62.96152344 37.83740234 61.93554688 C35.00110606 57.40410567 32.1863859 52.85942534 29.375 48.3125 C28.84874023 47.46155762 28.32248047 46.61061523 27.78027344 45.73388672 C26.18650575 43.15613646 24.59324953 40.57807054 23 38 C20.77149186 34.39542568 18.54217643 30.79135174 16.3125 27.1875 C15.51042114 25.89017944 15.51042114 25.89017944 14.69213867 24.56665039 C12.12809635 20.4228589 9.55534715 16.28501406 6.9609375 12.16015625 C6.49131592 11.41290283 6.02169434 10.66564941 5.5378418 9.89575195 C4.65852343 8.49847675 3.77727263 7.10241518 2.89379883 5.70776367 C0 1.10987261 0 1.10987261 0 0 Z " fill="#764E50" transform="translate(240,92)"/>
<path d="M0 0 C2.64 0 5.28 0 8 0 C8 13.2 8 26.4 8 40 C4 40 0 40 -4 40 C-4.78117188 40.04640625 -5.56234375 40.0928125 -6.3671875 40.140625 C-12.1311535 40.39201293 -15.52787418 40.03582086 -20 36 C-23.60057274 32.03936999 -23.50330882 27.78504341 -23.3515625 22.66015625 C-22.71323088 17.83011369 -20.41780271 15.25100239 -16.875 12.125 C-11.76809853 10.12664725 -6.17696965 10.27434345 -1 12 C-0.67 8.04 -0.34 4.08 0 0 Z M-12.875 18.5625 C-15.45248068 21.51902195 -16 23.08967888 -16 27 C-14.39588152 30.52906067 -13.25840638 31.82772908 -10 34 C-6.52253835 33.85202291 -4.5062915 33.34640997 -1.625 31.375 C0.63707739 28.0688869 0.49074537 25.92596294 0 22 C-0.90235835 19.51894806 -0.90235835 19.51894806 -3 18 C-7.11294095 16.78135083 -9.06522714 16.49197127 -12.875 18.5625 Z " fill="#272728" transform="translate(690,615)"/>
<path d="M0 0 C2.31 0 4.62 0 7 0 C7 13.2 7 26.4 7 40 C4.69 40 2.38 40 0 40 C0 39.34 0 38.68 0 38 C-0.55945312 38.32226562 -1.11890625 38.64453125 -1.6953125 38.9765625 C-5.69362809 40.7520857 -9.71337595 40.54852535 -14 40 C-18.40802625 37.83605984 -21.23139226 35.61803133 -23 31 C-23.66198068 25.65511896 -23.67332051 21.39651661 -21.3125 16.5 C-18.24523521 13.18403806 -16.22100488 11.22751757 -11.59765625 10.75390625 C-6.83981987 10.635135 -4.3770711 10.81146445 0 13 C0 8.71 0 4.42 0 0 Z M-12.8125 18.5 C-15.65965128 21.75388717 -16.07548906 23.69712377 -16 28 C-14.07080563 31.54971764 -12.86590284 32.72940536 -9 33.9375 C-5.8530634 34.00306118 -4.49869682 33.87402261 -2 32 C0.09679403 29.30412197 -0.00489179 27.907056 -0.1875 24.4375 C-1.04964182 20.4300488 -1.04964182 20.4300488 -4 18 C-7.75680721 16.77495417 -9.29023258 16.62145738 -12.8125 18.5 Z " fill="#1A1A1A" transform="translate(1089,615)"/>
<path d="M0 0 C3.88924158 1.8057193 5.51165031 3.26747547 7.875 6.8125 C9 10 9 10 9 17 C-1.395 17.495 -1.395 17.495 -12 18 C-8.42129926 21.57870074 -6.95447092 21.74807775 -2 22 C1.33499305 21.16830035 1.33499305 21.16830035 4 20 C4.99 20.99 5.98 21.98 7 23 C6.06543653 25.33640867 5.42895674 26.72186367 3.2890625 28.109375 C-1.28019855 29.88717623 -6.19047066 29.52795369 -11 29 C-14.93436187 27.06733101 -17.98032544 24.93305046 -20 21 C-21.52289647 14.9320249 -21.24527136 10.51696131 -18 5 C-12.26152601 -0.31858565 -7.64696318 -0.76685648 0 0 Z M-11.375 7.875 C-13.20248337 9.81893314 -13.20248337 9.81893314 -13 12 C-8.05 12 -3.1 12 2 12 C-0.32251426 7.11504475 -0.32251426 7.11504475 -3 6 C-6.74401272 5.5930421 -8.36787347 5.50095274 -11.375 7.875 Z " fill="#262626" transform="translate(949,626)"/>
<path d="M0 0 C2.59784285 1.91799143 3.95486352 3.65032644 4.875 6.76953125 C5.40871799 10.84669648 5.35854183 14.86996434 5.31640625 18.9765625 C5.31189453 19.81251953 5.30738281 20.64847656 5.30273438 21.50976562 C5.29101173 23.56122899 5.27307828 25.61265523 5.25390625 27.6640625 C1.58723958 27.6640625 -2.07942708 27.6640625 -5.74609375 27.6640625 C-6.88691406 27.73367188 -6.88691406 27.73367188 -8.05078125 27.8046875 C-15.03123964 28.10172828 -15.03123964 28.10172828 -18.80859375 25.7890625 C-21.13801312 23.23421545 -21.6840664 22.23471408 -22.05859375 18.7890625 C-21.74609375 15.6640625 -21.74609375 15.6640625 -19.87109375 13.3515625 C-16.16332976 10.40716168 -13.81983407 10.55549642 -9.12109375 10.6015625 C-7.93257812 10.61058594 -6.7440625 10.61960937 -5.51953125 10.62890625 C-4.60429688 10.64050781 -3.6890625 10.65210938 -2.74609375 10.6640625 C-4.05505095 7.54208772 -4.05505095 7.54208772 -6.74609375 5.6640625 C-8.86285019 5.72523694 -8.86285019 5.72523694 -11.18359375 6.0390625 C-12.35728516 6.17441406 -12.35728516 6.17441406 -13.5546875 6.3125 C-15.91556361 6.63057378 -15.91556361 6.63057378 -18.74609375 7.6640625 C-19.40609375 5.6840625 -20.06609375 3.7040625 -20.74609375 1.6640625 C-14.73598578 -2.34267615 -6.57147123 -3.19693195 0 0 Z M-12.74609375 15.6640625 C-13.07609375 17.3140625 -13.40609375 18.9640625 -13.74609375 20.6640625 C-10.79790459 22.18027407 -9.29252831 22.77583321 -5.99609375 22.1015625 C-3.49173665 20.84259442 -3.49173665 20.84259442 -2.93359375 18.0390625 C-2.87171875 17.2553125 -2.80984375 16.4715625 -2.74609375 15.6640625 C-6.04609375 15.6640625 -9.34609375 15.6640625 -12.74609375 15.6640625 Z " fill="#272727" transform="translate(797.74609375,627.3359375)"/>
<path d="M0 0 C3.88924158 1.8057193 5.51165031 3.26747547 7.875 6.8125 C9 10 9 10 9 17 C-1.395 17.495 -1.395 17.495 -12 18 C-8.42129926 21.57870074 -6.95447092 21.74807775 -2 22 C1.33499305 21.16830035 1.33499305 21.16830035 4 20 C4.99 20.99 5.98 21.98 7 23 C6.0570175 25.35745625 5.42679995 26.72726909 3.2578125 28.11328125 C-2.03578419 30.19225435 -8.13373485 29.61077768 -13.4375 27.875 C-17.64978408 24.79284091 -19.54791041 21.62752252 -20.9375 16.625 C-21.01444622 12.16211916 -20.21525937 8.87459814 -18 5 C-12.35125336 -0.37319802 -7.58708895 -0.76085214 0 0 Z M-11.375 7.875 C-13.20248337 9.81893314 -13.20248337 9.81893314 -13 12 C-8.05 12 -3.1 12 2 12 C-0.32251426 7.11504475 -0.32251426 7.11504475 -3 6 C-6.74401272 5.5930421 -8.36787347 5.50095274 -11.375 7.875 Z " fill="#232324" transform="translate(442,626)"/>
<path d="M0 0 C3.88924158 1.8057193 5.51165031 3.26747547 7.875 6.8125 C9 10 9 10 9 17 C-1.395 17.495 -1.395 17.495 -12 18 C-8.42129926 21.57870074 -6.95447092 21.74807775 -2 22 C1.33499305 21.16830035 1.33499305 21.16830035 4 20 C4.99 20.99 5.98 21.98 7 23 C6.0570175 25.35745625 5.42679995 26.72726909 3.2578125 28.11328125 C-2.03578419 30.19225435 -8.13373485 29.61077768 -13.4375 27.875 C-17.40791894 24.96981541 -19.39030035 21.82909894 -20.9375 17.1875 C-21.0253644 12.70641535 -20.00270158 9.00540316 -18 5 C-12.4395834 -0.42479668 -7.53014196 -0.75514135 0 0 Z M-11.375 8.4375 C-13.089257 10.63503326 -13.089257 10.63503326 -13 12 C-8.05 12 -3.1 12 2 12 C-0.32251426 7.11504475 -0.32251426 7.11504475 -3 6 C-7.12239733 5.462296 -8.40324904 5.38754506 -11.375 8.4375 Z " fill="#232323" transform="translate(726,626)"/>
<path d="M0 0 C2.64 0 5.28 0 8 0 C8.02505615 0.56509277 8.0501123 1.13018555 8.07592773 1.71240234 C8.19179956 4.26683742 8.31456537 6.8208955 8.4375 9.375 C8.47681641 10.26445313 8.51613281 11.15390625 8.55664062 12.0703125 C8.61948242 13.34648438 8.61948242 13.34648438 8.68359375 14.6484375 C8.72025146 15.43395996 8.75690918 16.21948242 8.79467773 17.02880859 C8.890891 19.07523496 8.890891 19.07523496 10 21 C12.83514145 21.91950534 14.42022079 22.20936472 17.25 21.1875 C19.15074924 20.10600632 19.15074924 20.10600632 20 18 C20.15004973 16.6265365 20.24838006 15.2471474 20.31640625 13.8671875 C20.35830078 13.06152344 20.40019531 12.25585938 20.44335938 11.42578125 C20.48267578 10.58402344 20.52199219 9.74226562 20.5625 8.875 C20.60568359 8.02550781 20.64886719 7.17601562 20.69335938 6.30078125 C20.79954236 4.20071777 20.90028497 2.10038052 21 0 C23.64 0 26.28 0 29 0 C29 9.57 29 19.14 29 29 C25.33333333 29 21.66666667 29 18 29 C17.16726563 29.04640625 16.33453125 29.0928125 15.4765625 29.140625 C7.81859277 29.43435535 7.81859277 29.43435535 3.9375 27.375 C-0.54904993 21.87535815 -0.25704801 15.86960593 -0.125 9.125 C-0.11597656 8.24585938 -0.10695313 7.36671875 -0.09765625 6.4609375 C-0.07424577 4.3071729 -0.0383801 2.15354986 0 0 Z " fill="#2D2D2D" transform="translate(1029,626)"/>
<path d="M0 0 C2.31 0 4.62 0 7 0 C7 0.66 7 1.32 7 2 C7.54785156 1.67773438 8.09570312 1.35546875 8.66015625 1.0234375 C12.9331316 -0.84554337 17.43231216 -0.54215879 22 0 C25.41427631 1.81165682 26.57062099 3.02372771 28.11328125 6.53125 C29.26774409 11.04738659 29.21579366 15.2375394 29.125 19.875 C29.11597656 20.75414062 29.10695313 21.63328125 29.09765625 22.5390625 C29.07424577 24.6928271 29.0383801 26.84645014 29 29 C26.36 29 23.72 29 21 29 C20.97494385 28.43490723 20.9498877 27.86981445 20.92407227 27.28759766 C20.80820044 24.73316258 20.68543463 22.1791045 20.5625 19.625 C20.52318359 18.73554687 20.48386719 17.84609375 20.44335938 16.9296875 C20.40146484 16.07890625 20.35957031 15.228125 20.31640625 14.3515625 C20.27974854 13.56604004 20.24309082 12.78051758 20.20532227 11.97119141 C20.109109 9.92476504 20.109109 9.92476504 19 8 C15.05711342 7.03618328 13.01249413 6.99687647 9 8 C8.67 14.93 8.34 21.86 8 29 C5.36 29 2.72 29 0 29 C0 19.43 0 9.86 0 0 Z " fill="#2A2A2A" transform="translate(966,626)"/>
<path d="M0 0 C2.31 0 4.62 0 7 0 C7 0.66 7 1.32 7 2 C7.54785156 1.67773438 8.09570312 1.35546875 8.66015625 1.0234375 C12.93604039 -0.84681566 17.42927876 -0.53573736 22 0 C25.74229719 1.9093353 26.68554687 3.13497805 28.11328125 7.0625 C29.3037778 11.51162532 29.22086091 15.86198496 29.125 20.4375 C29.11597656 21.26443359 29.10695312 22.09136719 29.09765625 22.94335938 C29.07431512 24.96236708 29.03845288 26.98122356 29 29 C26.36 29 23.72 29 21 29 C20.97494385 28.43490723 20.9498877 27.86981445 20.92407227 27.28759766 C20.80820044 24.73316258 20.68543463 22.1791045 20.5625 19.625 C20.52318359 18.73554687 20.48386719 17.84609375 20.44335938 16.9296875 C20.40146484 16.07890625 20.35957031 15.228125 20.31640625 14.3515625 C20.27974854 13.56604004 20.24309082 12.78051758 20.20532227 11.97119141 C20.109109 9.92476504 20.109109 9.92476504 19 8 C15.05711342 7.03618328 13.01249413 6.99687647 9 8 C8.67 14.93 8.34 21.86 8 29 C5.36 29 2.72 29 0 29 C0 19.43 0 9.86 0 0 Z " fill="#2A2A2A" transform="translate(119,626)"/>
<path d="M0 0 C2.24249917 1.44975128 3.72548878 2.76738382 4.92578125 5.16796875 C5.01027753 6.90841045 5.03301149 8.65206597 5.0234375 10.39453125 C5.02021484 11.42578125 5.01699219 12.45703125 5.01367188 13.51953125 C5.00529297 14.59976563 4.99691406 15.68 4.98828125 16.79296875 C4.98376953 17.8809375 4.97925781 18.96890625 4.97460938 20.08984375 C4.96279901 22.78260664 4.94632903 25.47526063 4.92578125 28.16796875 C1.59244792 28.16796875 -1.74088542 28.16796875 -5.07421875 28.16796875 C-6.21503906 28.23757813 -6.21503906 28.23757813 -7.37890625 28.30859375 C-14.35936464 28.60563453 -14.35936464 28.60563453 -18.13671875 26.29296875 C-20.46613812 23.7381217 -21.0121914 22.73862033 -21.38671875 19.29296875 C-21.07421875 16.16796875 -21.07421875 16.16796875 -19.19921875 13.85546875 C-15.49145476 10.91106793 -13.14795907 11.05940267 -8.44921875 11.10546875 C-7.26070312 11.11449219 -6.0721875 11.12351562 -4.84765625 11.1328125 C-3.93242188 11.14441406 -3.0171875 11.15601563 -2.07421875 11.16796875 C-3.38317595 8.04599397 -3.38317595 8.04599397 -6.07421875 6.16796875 C-8.19097519 6.22914319 -8.19097519 6.22914319 -10.51171875 6.54296875 C-11.68541016 6.67832031 -11.68541016 6.67832031 -12.8828125 6.81640625 C-15.24368861 7.13448003 -15.24368861 7.13448003 -18.07421875 8.16796875 C-18.73421875 6.18796875 -19.39421875 4.20796875 -20.07421875 2.16796875 C-14.29377249 -1.68566209 -6.54220944 -2.6242761 0 0 Z M-12.07421875 16.16796875 C-12.73421875 17.48796875 -13.39421875 18.80796875 -14.07421875 20.16796875 C-12.51567881 21.944586 -12.51567881 21.944586 -10.07421875 23.16796875 C-6.36126591 22.45282481 -6.36126591 22.45282481 -3.07421875 21.16796875 C-2.74421875 19.51796875 -2.41421875 17.86796875 -2.07421875 16.16796875 C-5.37421875 16.16796875 -8.67421875 16.16796875 -12.07421875 16.16796875 Z " fill="#1D1D1D" transform="translate(561.07421875,626.83203125)"/>
<path d="M0 0 C4.7344316 1.91391916 7.72684393 5.45368786 10 10 C10.56350726 14.61891196 10.4422879 18.09841312 8.375 22.3125 C5.05193885 26.07280603 2.51064546 28.63331855 -2.62109375 29.3828125 C-8.57344491 29.62510631 -12.41318667 29.128132 -17 25 C-19.90228418 21.69740076 -20.91559053 19.11842552 -21.25 14.6875 C-20.88716594 9.33569763 -19.41893949 6.28050637 -15.4375 2.6875 C-10.4658652 -0.75440102 -5.92633605 -0.47238911 0 0 Z M-13 11 C-13.52149375 14.71564293 -13.4841389 16.97792899 -11.875 20.375 C-9.25065402 22.64943318 -7.45152438 22.93096951 -4 23 C-0.27156036 21.26655125 -0.27156036 21.26655125 2 18 C2.49972631 13.58575095 2.50678641 11.68054174 -0.1875 8.0625 C-2.78241509 5.8869971 -2.78241509 5.8869971 -5.5 5.375 C-9.24497671 6.31124418 -10.71408345 7.93034063 -13 11 Z " fill="#222222" transform="translate(634,626)"/>
<path d="M0 0 C4.004793 2.0023965 6.6587028 4.17998877 9 8 C10.56840852 12.70522555 10.54895539 16.52648816 8.8125 21.1875 C6.47953993 24.80761046 3.84455245 27.07772378 0 29 C-4.82889743 29.40435212 -9.40690481 29.6440172 -13.9375 27.8125 C-17.25317661 24.89872359 -20.68362426 21.59324377 -21.23828125 17.046875 C-21.45127476 10.45528633 -19.76797113 7.21084651 -15.4375 2.1875 C-11.30270145 -1.22820315 -5.02482824 -0.52476747 0 0 Z M-10.9375 7.375 C-13.54853806 10.69813934 -13.52426701 12.76370783 -13.46875 16.87890625 C-12.89426856 19.47843474 -12.08642628 20.38326684 -10 22 C-6.34371434 23.11278259 -4.68460779 23.31948363 -1.1875 21.6875 C1.08915626 20.18421412 1.08915626 20.18421412 2 18 C2.26004123 14.48944334 2.38797265 11.86723298 0.9375 8.625 C-2.86045528 5.43961815 -6.54880643 5.3207179 -10.9375 7.375 Z " fill="#222222" transform="translate(336,626)"/>
<path d="M0 0 C2.31 0 4.62 0 7 0 C7.04898437 1.26457031 7.09796875 2.52914062 7.1484375 3.83203125 C7.2234738 5.49220947 7.29902127 7.15236464 7.375 8.8125 C7.4059375 9.64587891 7.436875 10.47925781 7.46875 11.33789062 C7.50742187 12.14033203 7.54609375 12.94277344 7.5859375 13.76953125 C7.6173584 14.50792236 7.6487793 15.24631348 7.68115234 16.00708008 C7.90834614 18.31349588 7.90834614 18.31349588 10 21 C12.66547031 22.28677877 13.77150598 22.07835067 16.5859375 21.11328125 C19.3845914 18.66332694 19.39979729 18.10422696 19.70703125 14.55078125 C19.76676066 12.8053553 19.80100206 11.05890979 19.8125 9.3125 C19.83763672 8.41982422 19.86277344 7.52714844 19.88867188 6.60742188 C19.94757338 4.40450561 19.98382754 2.20357681 20 0 C22.64 0 25.28 0 28 0 C28 9.57 28 19.14 28 29 C25.69 29 23.38 29 21 29 C21 28.34 21 27.68 21 27 C20.44183594 27.32355469 19.88367188 27.64710938 19.30859375 27.98046875 C15.32745866 29.73863501 11.27019631 29.44985861 7 29 C4.01333017 27.75555424 2.58833691 26.94330103 0.88720703 24.21582031 C-0.16443123 21.58932916 -0.22815683 19.62148746 -0.1953125 16.796875 C-0.18886719 15.8171875 -0.18242187 14.8375 -0.17578125 13.828125 C-0.15902344 12.81234375 -0.14226562 11.7965625 -0.125 10.75 C-0.11597656 9.71875 -0.10695312 8.6875 -0.09765625 7.625 C-0.07412011 5.08309713 -0.04124023 2.5416672 0 0 Z " fill="#242424" transform="translate(255,626)"/>
<path d="M0 0 C2.31 0 4.62 0 7 0 C7.07347656 1.77117188 7.07347656 1.77117188 7.1484375 3.578125 C7.22348879 5.13543937 7.29903561 6.69272991 7.375 8.25 C7.4059375 9.02730469 7.436875 9.80460938 7.46875 10.60546875 C7.678735 16.10377779 7.678735 16.10377779 10 21 C13.17546695 22.42348518 15.69978999 21.8250525 19 21 C20.0390378 16.57317509 20.31592951 12.21065368 20.5625 7.6875 C20.60568359 6.94693359 20.64886719 6.20636719 20.69335938 5.44335938 C20.79870432 3.62908536 20.89978316 1.8145645 21 0 C23.31 0 25.62 0 28 0 C28 9.57 28 19.14 28 29 C25.69 29 23.38 29 21 29 C21 28.34 21 27.68 21 27 C20.44054687 27.32097656 19.88109375 27.64195312 19.3046875 27.97265625 C15.30258328 29.75664508 11.28617597 29.68173822 7 29 C3.87822767 27.31712073 1.60862965 25.2172593 0 22 C-0.08426094 20.3325394 -0.10725143 18.66174813 -0.09765625 16.9921875 C-0.09443359 16.00605469 -0.09121094 15.01992188 -0.08789062 14.00390625 C-0.07951172 12.97136719 -0.07113281 11.93882812 -0.0625 10.875 C-0.05798828 9.83472656 -0.05347656 8.79445313 -0.04882812 7.72265625 C-0.03701952 5.14838038 -0.02055075 2.57421854 0 0 Z " fill="#1B1B1C" transform="translate(860,626)"/>
<path d="M0 0 C3.66666667 0 7.33333333 0 11 0 C12.17175781 -0.08701172 12.17175781 -0.08701172 13.3671875 -0.17578125 C17.84306177 -0.41979309 20.99606825 -0.56968093 24.5625 2.375 C27.82306462 5.88637728 28.12444012 7.34741959 28.09765625 12.0078125 C28.09443359 12.99394531 28.09121094 13.98007812 28.08789062 14.99609375 C28.07951172 16.02863281 28.07113281 17.06117188 28.0625 18.125 C28.05798828 19.16527344 28.05347656 20.20554687 28.04882812 21.27734375 C28.03701952 23.85161962 28.02055075 26.42578146 28 29 C25.69 29 23.38 29 21 29 C20.95101562 27.81921875 20.90203125 26.6384375 20.8515625 25.421875 C20.77651121 23.86456063 20.70096439 22.30727009 20.625 20.75 C20.5940625 19.97269531 20.563125 19.19539062 20.53125 18.39453125 C20.3392539 12.8840936 20.3392539 12.8840936 18 8 C15.131446 6.94316431 13.63685855 6.7700233 10.75 7.8125 C8.84925076 8.89399368 8.84925076 8.89399368 8 11 C7.84995027 12.3734635 7.75161994 13.7528526 7.68359375 15.1328125 C7.64169922 15.93847656 7.59980469 16.74414062 7.55664062 17.57421875 C7.49766602 18.83685547 7.49766602 18.83685547 7.4375 20.125 C7.37272461 21.39923828 7.37272461 21.39923828 7.30664062 22.69921875 C7.20045764 24.79928223 7.09971503 26.89961948 7 29 C4.69 29 2.38 29 0 29 C0 19.43 0 9.86 0 0 Z " fill="#191919" transform="translate(577,626)"/>
<path d="M0 0 C1.1240625 -0.00515625 2.248125 -0.0103125 3.40625 -0.015625 C6.35041743 0.23715705 8.01695505 0.71635459 10.5 2.25 C9.84 4.23 9.18 6.21 8.5 8.25 C7.860625 8.085 7.22125 7.92 6.5625 7.75 C2.52413348 7.09067485 -1.41807258 7.16996221 -5.5 7.25 C-5.5 8.24 -5.5 9.23 -5.5 10.25 C-4.16195312 10.50523437 -4.16195312 10.50523437 -2.796875 10.765625 C-1.62640625 11.00796875 -0.4559375 11.2503125 0.75 11.5 C2.49023438 11.84804688 2.49023438 11.84804688 4.265625 12.203125 C7.7618945 13.33476778 9.26285824 14.37367487 11.5 17.25 C12.0625 20.1875 12.0625 20.1875 11.5 23.25 C9.327365 25.82285724 7.52006162 27.73996919 4.5 29.25 C-8.738383 30.20082309 -8.738383 30.20082309 -14.5 26.25 C-13.51 24.27 -12.52 22.29 -11.5 20.25 C-10.675 20.58 -9.85 20.91 -9 21.25 C-4.9126017 22.41782809 -1.73076656 22.3958885 2.5 22.25 C2.83 21.59 3.16 20.93 3.5 20.25 C2.59636719 19.98445312 1.69273437 19.71890625 0.76171875 19.4453125 C-1.00751953 18.91550781 -1.00751953 18.91550781 -2.8125 18.375 C-3.98425781 18.02695312 -5.15601563 17.67890625 -6.36328125 17.3203125 C-9.5 16.25 -9.5 16.25 -12.5 14.25 C-13.51717414 10.39926935 -13.87728147 8.14356138 -12.3125 4.4375 C-8.77668951 0.17014251 -5.39130042 -0.02473074 0 0 Z " fill="#292929" transform="translate(168.5,625.75)"/>
<path d="M0 0 C6.6 0 13.2 0 20 0 C20.09216383 4.30609894 20.1716866 8.60873719 20.21972656 12.91503906 C20.23976332 14.37772252 20.26700104 15.84032666 20.30175781 17.30273438 C20.35063225 19.4129601 20.37304659 21.52212136 20.390625 23.6328125 C20.41157227 24.90012207 20.43251953 26.16743164 20.45410156 27.47314453 C19.9190167 31.62897028 18.61140251 33.76518736 16 37 C11.82757272 39.08621364 6.54313381 38.45549649 2 38 C-0.52750327 36.93603263 -1.92722406 35.8424675 -4 34 C-3.6478759 31.35906923 -3.34271564 30.28151642 -1.25 28.5625 C1 28 1 28 3.4375 29.4375 C4.283125 29.953125 5.12875 30.46875 6 31 C8.74239143 30.78670551 8.74239143 30.78670551 11 30 C11.9300889 27.2097333 12.18698769 25.23470458 12.31640625 22.33203125 C12.35830078 21.43935547 12.40019531 20.54667969 12.44335938 19.62695312 C12.48267578 18.69818359 12.52199219 17.76941406 12.5625 16.8125 C12.60568359 15.87212891 12.64886719 14.93175781 12.69335938 13.96289062 C12.79938543 11.64209812 12.90019194 9.32106823 13 7 C8.71 7 4.42 7 0 7 C0 4.69 0 2.38 0 0 Z " fill="#1A1A1A" transform="translate(829,617)"/>
<path d="M0 0 C5.10880829 -0.61658031 5.10880829 -0.61658031 8 0 C10.44303403 2.03926899 12.2277425 4.36846614 14 7 C14.78375 6.21625 15.5675 5.4325 16.375 4.625 C21 0 21 0 22.9453125 -0.1953125 C24.96354167 -0.13020833 26.98177083 -0.06510417 29 0 C26.38888348 4.83540096 23.62542917 8.87103901 20 13 C21.3413735 16.8276567 23.04962061 19.56630975 25.625 22.6875 C29 26.78571429 29 26.78571429 29 29 C23.89119171 29.70466321 23.89119171 29.70466321 21 29 C18.50873331 26.62339412 16.74263186 23.95719346 15 21 C12.35247996 23.57784846 10.05567935 25.91648098 8 29 C6.0546875 29.29296875 6.0546875 29.29296875 3.875 29.1875 C2.59625 29.125625 1.3175 29.06375 0 29 C1.34929464 25.16336928 3.07751025 22.34827431 5.625 19.1875 C6.57246094 18.00220703 6.57246094 18.00220703 7.5390625 16.79296875 C8.02117187 16.20128906 8.50328125 15.60960937 9 15 C7.10899495 10.81686761 4.34187164 7.56287087 1.4609375 4.0234375 C0 2 0 2 0 0 Z " fill="#2B2B2B" transform="translate(455,626)"/>
<path d="M0 0 C1.010625 -0.00773438 2.02125 -0.01546875 3.0625 -0.0234375 C6.40536871 0.42998352 8.29150416 1.39516145 11 3.375 C12.3125 5.5625 12.3125 5.5625 13 7.375 C8.25 10.375 8.25 10.375 6 10.375 C6 9.715 6 9.055 6 8.375 C4.14375 8.0965625 4.14375 8.0965625 2.25 7.8125 C1.55390625 7.70808594 0.8578125 7.60367188 0.140625 7.49609375 C-2.12638056 7.36785073 -3.83849957 7.71778703 -6 8.375 C-6.6662851 11.40296892 -7.11407095 14.26915908 -7 17.375 C-5.14358251 20.6489971 -5.14358251 20.6489971 -2 22.375 C1.75470151 22.3013784 3.32841161 22.04658839 6 19.375 C9.29279709 19.69365778 10.86535088 20.92015351 13 23.375 C8.69962837 27.78853931 6.90314547 29.52412876 0.75 29.625 C-3.92757656 29.56385521 -7.12435927 29.21083468 -11 26.375 C-14.46987891 22.72249588 -15.30013186 19.7784317 -15.5 14.875 C-15.30691801 9.97471232 -14.41113589 7.06271447 -11 3.375 C-7.24000122 0.66987179 -4.61428508 -0.03531341 0 0 Z " fill="#252525" transform="translate(522,625.625)"/>
<path d="M0 0 C2.64 0 5.28 0 8 0 C10.64 5.94 13.28 11.88 16 18 C18.64 12.06 21.28 6.12 24 0 C26.64 0 29.28 0 32 0 C30.75298819 3.1470258 29.50183003 6.29238803 28.25 9.4375 C27.90195312 10.31599609 27.55390625 11.19449219 27.1953125 12.09960938 C24.92576579 17.79449047 22.53533728 23.41833383 20 29 C17.36 29 14.72 29 12 29 C0 3.68587896 0 3.68587896 0 0 Z " fill="#272727" transform="translate(894,626)"/>
<path d="M0 0 C2.64 0 5.28 0 8 0 C8 1.98 8 3.96 8 6 C9.7015625 5.9690625 9.7015625 5.9690625 11.4375 5.9375 C15 6 15 6 16 7 C16.04063832 8.66617115 16.042721 10.33388095 16 12 C13.36 12 10.72 12 8 12 C8.33 16.95 8.66 21.9 9 27 C13.47702364 28.06537205 13.47702364 28.06537205 16 28 C16.33 29.98 16.66 31.96 17 34 C13.53431742 35.73284129 9.78929407 35.47120755 6 35 C2.90467625 33.25888039 1.35968967 32.26683155 0.37890625 28.8125 C-0.07954397 25.40957055 -0.09458331 22.12041383 -0.0625 18.6875 C-0.05347656 17.43324219 -0.04445313 16.17898438 -0.03515625 14.88671875 C-0.02355469 13.93410156 -0.01195312 12.98148438 0 12 C-1.32 12 -2.64 12 -4 12 C-4 10.02 -4 8.04 -4 6 C-2.68 6 -1.36 6 0 6 C0 4.02 0 2.04 0 0 Z " fill="#282828" transform="translate(1005,620)"/>
<path d="M0 0 C2.64 0 5.28 0 8 0 C8 1.98 8 3.96 8 6 C10.31 6 12.62 6 15 6 C15 7.98 15 9.96 15 12 C12.69 12 10.38 12 8 12 C8.33 17.28 8.66 22.56 9 28 C10.98 28 12.96 28 15 28 C17 31 17 31 17 34 C13.31123973 35.84438013 9.02669687 35.48788734 5 35 C2.42362529 33.11484777 1.40332572 31.80665143 0 29 C-0.07194869 26.11629667 -0.09291708 23.25760336 -0.0625 20.375 C-0.05798828 19.57320312 -0.05347656 18.77140625 -0.04882812 17.9453125 C-0.03703168 15.96350994 -0.01909605 13.98174567 0 12 C-1.32 12 -2.64 12 -4 12 C-4 10.02 -4 8.04 -4 6 C-2.68 6 -1.36 6 0 6 C0 4.02 0 2.04 0 0 Z " fill="#262626" transform="translate(188,620)"/>
<path d="M0 0 C2.64 0 5.28 0 8 0 C8 1.98 8 3.96 8 6 C10.31 6 12.62 6 15 6 C15 7.98 15 9.96 15 12 C12.69 12 10.38 12 8 12 C8.33 17.28 8.66 22.56 9 28 C11.31 28 13.62 28 16 28 C16.33 29.98 16.66 31.96 17 34 C13.30846481 35.8457676 9.02978061 35.48175083 5 35 C1.90200019 32.80873184 1.19647888 31.58943664 0 28 C-0.07051114 25.26134713 -0.09357765 22.54972412 -0.0625 19.8125 C-0.05798828 19.06291016 -0.05347656 18.31332031 -0.04882812 17.54101562 C-0.03706354 15.69397617 -0.01912865 13.84697787 0 12 C-1.32 12 -2.64 12 -4 12 C-4 10.02 -4 8.04 -4 6 C-2.68 6 -1.36 6 0 6 C0 4.02 0 2.04 0 0 Z " fill="#262626" transform="translate(294,620)"/>
<path d="M0 0 C2.31 0 4.62 0 7 0 C7 1.98 7 3.96 7 6 C9.64 6 12.28 6 15 6 C15 7.98 15 9.96 15 12 C12.36 12 9.72 12 7 12 C7.14063135 14.29199177 7.28765943 16.58359186 7.4375 18.875 C7.51871094 20.15117188 7.59992188 21.42734375 7.68359375 22.7421875 C7.79206027 25.88300152 7.79206027 25.88300152 9 28 C10.98 28 12.96 28 15 28 C15.66 29.98 16.32 31.96 17 34 C14.59486979 35.20256511 12.87146436 35.2703777 10.1875 35.375 C9.33542969 35.42398438 8.48335937 35.47296875 7.60546875 35.5234375 C3.66575668 34.73195112 2.32804547 33.24352242 0 30 C-0.58588017 26.86606972 -0.47532898 23.8614126 -0.3125 20.6875 C-0.27866211 19.43356445 -0.27866211 19.43356445 -0.24414062 18.15429688 C-0.1855061 16.10208851 -0.09583215 14.05080798 0 12 C-1.65 12 -3.3 12 -5 12 C-5 10.02 -5 8.04 -5 6 C-3.35 6 -1.7 6 0 6 C0 4.02 0 2.04 0 0 Z " fill="#1F1F1F" transform="translate(231,620)"/>
<path d="M0 0 C2.64 0 5.28 0 8 0 C8 13.2 8 26.4 8 40 C5.36 40 2.72 40 0 40 C0 26.8 0 13.6 0 0 Z " fill="#323232" transform="translate(760,615)"/>
<path d="M0 0 C3.13969114 2.67598291 4.81843627 6.08594296 6.6875 9.6875 C7.00783203 10.29400391 7.32816406 10.90050781 7.65820312 11.52539062 C8.44371484 13.01434566 9.22252942 14.50683047 10 16 C4.73634576 20.33067849 -0.7376855 24.27037389 -6.4375 28 C-7.05254395 28.40984131 -7.66758789 28.81968262 -8.30126953 29.24194336 C-9.82763452 30.22608617 -11.41033025 31.12177608 -13 32 C-13.66 31.67 -14.32 31.34 -15 31 C-13.1936223 26.74221817 -11.37869511 22.488227 -9.55566406 18.23754883 C-8.93642215 16.79032266 -8.31954926 15.34208048 -7.70507812 13.89282227 C-6.8225867 11.81256224 -5.93170297 9.73607786 -5.0390625 7.66015625 C-4.76502594 7.00910416 -4.49098938 6.35805206 -4.20864868 5.68727112 C-2.22774341 1.11387171 -2.22774341 1.11387171 0 0 Z " fill="#DCC8AC" transform="translate(146,182)"/>
<path d="M0 0 C2.64 0 5.28 0 8 0 C8 12.54 8 25.08 8 38 C5.36 38 2.72 38 0 38 C0 25.46 0 12.92 0 0 Z " fill="#2A2A2A" transform="translate(100,617)"/>
<path d="M0 0 C2.64 0 5.28 0 8 0 C8 9.57 8 19.14 8 29 C5.36 29 2.72 29 0 29 C0 19.43 0 9.86 0 0 Z " fill="#343434" transform="translate(491,626)"/>
<path d="M0 0 C2.64 0 5.28 0 8 0 C8 9.57 8 19.14 8 29 C5.36 29 2.72 29 0 29 C0 19.43 0 9.86 0 0 Z " fill="#343434" transform="translate(212,626)"/>
<path d="M0 0 C2.625 0.625 2.625 0.625 5 2 C5.9375 3.9375 5.9375 3.9375 6 6 C5.01 7.485 5.01 7.485 4 9 C1 9.375 1 9.375 -2 9 C-4 6 -4 6 -3.8125 3.9375 C-3 2 -3 2 0 0 Z " fill="#373738" transform="translate(215,613)"/>
<path d="M0 0 C2.6875 0.875 2.6875 0.875 5 2 C5.04254356 3.99954746 5.04080783 6.00041636 5 8 C4 9 4 9 1.0625 9.1875 C-2 9 -2 9 -4 7 C-3.8125 4.5 -3.8125 4.5 -3 2 C-2.01 1.34 -1.02 0.68 0 0 Z " fill="#2E2E2F" transform="translate(494,613)"/>
<path d="M0 0 C0.66 0.33 1.32 0.66 2 1 C-1.3 4.3 -4.6 7.6 -8 11 C-8 6.67750434 -5.85084926 5.11604454 -3 2 C-2.01 1.34 -1.02 0.68 0 0 Z " fill="#CD8495" transform="translate(501,306)"/>
<path d="M0 0 C0.66 0.33 1.32 0.66 2 1 C-0.97 3.97 -3.94 6.94 -7 10 C-7 7 -7 7 -4.625 4.4375 C-3.75875 3.633125 -2.8925 2.82875 -2 2 C-1.34 1.34 -0.68 0.68 0 0 Z " fill="#5B5B5B" transform="translate(105,306)"/>
<path d="M0 0 C0.66 0.33 1.32 0.66 2 1 C-0.31 3.31 -2.62 5.62 -5 8 C-5.33 7.34 -5.66 6.68 -6 6 C-2.25 1.125 -2.25 1.125 0 0 Z " fill="#5A5A5A" transform="translate(514,627)"/>
<path d="M0 0 C0.66 0.33 1.32 0.66 2 1 C1.360625 1.556875 0.72125 2.11375 0.0625 2.6875 C-2.19680987 5.22066561 -2.63149047 6.68341424 -3 10 C-3.33 10 -3.66 10 -4 10 C-4.25 7.25 -4.25 7.25 -4 4 C-2 1.625 -2 1.625 0 0 Z " fill="#6C6C6D" transform="translate(544,639)"/>
</svg>
