<svg version="1.1" id="Layer_1" xmlns="http://www.w3.org/2000/svg" xmlns:xlink="http://www.w3.org/1999/xlink" x="0px" y="0px"
	 width="100%" viewBox="0 0 198 300" enable-background="new 0 0 198 300" xml:space="preserve">
<path fill="#AB0935" opacity="1.000000" stroke="none" 
	d="
M1.000000,155.000000 
	C1.000000,117.979103 1.000000,80.958214 1.308636,43.340828 
	C15.411514,28.829561 29.205757,14.914781 43.000000,1.000000 
	C81.020897,1.000000 119.041786,1.000000 157.659363,1.308547 
	C171.837357,15.078062 185.418671,28.539032 199.000000,42.000000 
	C199.000000,62.687561 199.000000,83.375122 198.531357,104.534286 
	C180.714203,105.056740 163.365692,105.107582 145.747864,105.048218 
	C144.912399,104.169281 144.346268,103.400558 144.077820,102.300484 
	C146.296143,101.648201 148.215073,101.061775 150.137726,101.049271 
	C162.925049,100.966118 175.713837,101.068558 188.500290,100.934441 
	C190.316711,100.915398 192.123108,99.940956 194.000031,98.981407 
	C194.070541,82.398041 194.170578,66.240784 193.968460,50.087303 
	C193.940750,47.872982 192.980148,45.135006 191.483093,43.559826 
	C180.356110,31.852264 169.046188,20.315397 157.612381,8.906663 
	C156.167175,7.464624 153.672073,6.324426 151.657532,6.315120 
	C117.680481,6.158160 83.702286,6.158620 49.725224,6.313950 
	C47.707027,6.323176 45.224590,7.448898 43.756420,8.876179 
	C31.934902,20.368456 20.242582,31.996613 8.696780,43.765709 
	C7.274513,45.215485 6.228557,47.735767 6.219181,49.765568 
	C6.067606,82.576744 6.074105,115.388985 6.210468,148.200287 
	C6.218328,150.091461 7.169691,152.439972 8.486832,153.790909 
	C18.368401,163.925964 28.411451,173.905487 38.528858,183.806061 
	C39.691261,184.943573 41.558804,185.661469 43.207809,185.946274 
	C48.962559,186.940140 55.347511,183.823959 60.569675,188.811279 
	C61.221096,189.433395 63.134590,188.807800 64.448799,188.644028 
	C66.211342,188.424393 67.959763,188.091370 70.987526,187.600693 
	C69.506798,189.758484 68.716743,190.909790 67.463165,192.037430 
	C59.840519,192.006378 52.664528,191.695953 45.527943,192.093262 
	C40.376972,192.380020 36.793930,190.491013 33.282719,186.917648 
	C22.677860,176.125107 11.782265,165.618225 1.000000,155.000000 
z"/>
<path fill="#AA0934" opacity="1.000000" stroke="none" 
	d="
M0.999997,265.000000 
	C1.000000,244.645767 1.000000,224.291550 1.468656,203.467041 
	C19.621466,203.050232 37.305618,203.103699 54.959747,203.509155 
	C53.138325,208.056396 50.082668,209.552185 45.486626,209.107651 
	C41.032120,208.676819 36.503315,209.014191 32.007141,209.014191 
	C23.568127,209.014191 15.129114,209.014191 6.743050,209.014191 
	C6.474975,210.025665 6.244792,210.490356 6.244039,210.955429 
	C6.217886,227.108246 6.138185,243.261917 6.316054,259.412720 
	C6.334916,261.125366 7.519213,263.173950 8.777916,264.468750 
	C18.526934,274.497437 28.344341,284.464233 38.367474,294.216980 
	C39.925797,295.733276 42.634544,296.820892 44.816730,296.830139 
	C81.784599,296.987488 118.753525,296.987366 155.721405,296.829926 
	C157.897888,296.820679 160.589478,295.725616 162.155136,294.216431 
	C171.984390,284.741913 181.658279,275.099091 191.130280,265.267914 
	C192.741028,263.596100 193.946426,260.750702 193.959061,258.439972 
	C194.139343,225.469025 194.141403,192.496414 193.953186,159.525543 
	C193.940155,157.242706 192.634491,154.417847 190.994492,152.784058 
	C181.325012,143.151260 171.446930,133.722946 161.451080,124.427933 
	C159.947357,123.029625 157.475037,122.032227 155.420334,121.976768 
	C145.935318,121.720749 136.439545,121.864601 126.947617,121.862541 
	C124.782860,121.862068 122.550827,122.166061 120.479469,121.723236 
	C119.303917,121.471939 118.104431,120.147018 117.474922,118.998993 
	C117.131104,118.371956 117.672836,116.757538 118.330246,116.228928 
	C118.948181,115.732071 120.273361,115.907982 121.235504,116.079231 
	C127.938385,117.272255 134.636429,118.496780 141.318024,119.803314 
	C144.968002,120.517029 147.326752,118.871620 149.558777,115.954857 
	C157.547775,114.975731 163.367203,117.061073 168.865356,123.005646 
	C178.314209,133.221695 188.894592,142.391190 199.000000,152.000000 
	C199.000000,189.687561 199.000000,227.375122 198.691223,265.658936 
	C186.921646,277.836761 175.460815,289.418365 164.000000,301.000000 
	C121.979103,301.000000 79.958214,301.000000 37.341187,300.691223 
	C24.830036,288.588287 12.915016,276.794159 0.999997,265.000000 
z"/>
<path fill="#47704C" opacity="1.000000" stroke="none" 
	d="
M54.989777,203.157166 
	C37.305618,203.103699 19.621466,203.050232 1.468656,202.998383 
	C1.000000,187.312439 1.000000,171.624878 1.000000,155.468658 
	C11.782265,165.618225 22.677860,176.125107 33.282719,186.917648 
	C36.793930,190.491013 40.376972,192.380020 45.527943,192.093262 
	C52.664528,191.695953 59.840519,192.006378 67.367554,192.359985 
	C63.486904,196.189880 59.238342,199.673523 54.989777,203.157166 
z"/>
<path fill="#47704C" opacity="1.000000" stroke="none" 
	d="
M199.000000,151.531342 
	C188.894592,142.391190 178.314209,133.221695 168.865356,123.005646 
	C163.367203,117.061073 157.547775,114.975731 149.529388,115.546852 
	C148.035461,111.799553 147.026321,108.478989 146.017181,105.158424 
	C163.365692,105.107582 180.714203,105.056740 198.531357,105.002945 
	C199.000000,120.354225 199.000000,135.708450 199.000000,151.531342 
z"/>
<path fill="#47704C" opacity="1.000000" stroke="none" 
	d="
M42.531342,1.000000 
	C29.205757,14.914781 15.411514,28.829561 1.308636,42.872169 
	C1.000000,29.073322 1.000000,15.146646 1.000000,1.000000 
	C14.686776,1.000000 28.374729,1.000000 42.531342,1.000000 
z"/>
<path fill="#47704C" opacity="1.000000" stroke="none" 
	d="
M199.000000,41.531342 
	C185.418671,28.539032 171.837357,15.078062 158.128021,1.308547 
	C171.593338,1.000000 185.186661,1.000000 199.000000,1.000000 
	C199.000000,14.353423 199.000000,27.708054 199.000000,41.531342 
z"/>
<path fill="#47704C" opacity="1.000000" stroke="none" 
	d="
M0.999997,265.468658 
	C12.915016,276.794159 24.830036,288.588287 36.872528,300.691223 
	C25.073397,301.000000 13.146791,301.000000 1.000000,301.000000 
	C1.000000,289.313354 1.000000,277.625336 0.999997,265.468658 
z"/>
<path fill="#47704C" opacity="1.000000" stroke="none" 
	d="
M164.468658,301.000000 
	C175.460815,289.418365 186.921646,277.836761 198.691223,266.127563 
	C199.000000,277.593262 199.000000,289.186493 199.000000,301.000000 
	C187.646713,301.000000 176.292023,301.000000 164.468658,301.000000 
M192.532730,298.949829 
	C192.715637,298.932251 192.898529,298.914673 193.688538,298.972656 
	C194.417511,298.357635 195.146484,297.742615 196.104843,296.546082 
	C196.449997,294.902008 197.760406,292.724487 193.813690,292.586060 
	C192.696457,292.800354 191.579208,293.014618 189.782013,293.146240 
	C189.574188,294.382874 189.366379,295.619537 189.279877,297.488708 
	C190.181793,297.953217 191.083725,298.417755 192.532730,298.949829 
z"/>
<path fill="#F6F1F1" opacity="1.000000" stroke="none" 
	d="
M145.747864,105.048218 
	C147.026321,108.478989 148.035461,111.799553 149.073975,115.528122 
	C147.326752,118.871620 144.968002,120.517029 141.318024,119.803314 
	C134.636429,118.496780 127.938385,117.272255 121.235504,116.079231 
	C120.273361,115.907982 118.948181,115.732071 118.330246,116.228928 
	C117.672836,116.757538 117.131104,118.371956 117.474922,118.998993 
	C118.104431,120.147018 119.303917,121.471939 120.479469,121.723236 
	C122.550827,122.166061 124.782860,121.862068 126.947617,121.862541 
	C136.439545,121.864601 145.935318,121.720749 155.420334,121.976768 
	C157.475037,122.032227 159.947357,123.029625 161.451080,124.427933 
	C171.446930,133.722946 181.325012,143.151260 190.994492,152.784058 
	C192.634491,154.417847 193.940155,157.242706 193.953186,159.525543 
	C194.141403,192.496414 194.139343,225.469025 193.959061,258.439972 
	C193.946426,260.750702 192.741028,263.596100 191.130280,265.267914 
	C181.658279,275.099091 171.984390,284.741913 162.155136,294.216431 
	C160.589478,295.725616 157.897888,296.820679 155.721405,296.829926 
	C118.753525,296.987366 81.784599,296.987488 44.816730,296.830139 
	C42.634544,296.820892 39.925797,295.733276 38.367474,294.216980 
	C28.344341,284.464233 18.526934,274.497437 8.777916,264.468750 
	C7.519213,263.173950 6.334916,261.125366 6.316054,259.412720 
	C6.138185,243.261917 6.217886,227.108246 6.244039,210.955429 
	C6.244792,210.490356 6.474975,210.025665 6.743050,209.014191 
	C15.129114,209.014191 23.568127,209.014191 32.007141,209.014191 
	C36.503315,209.014191 41.032120,208.676819 45.486626,209.107651 
	C50.082668,209.552185 53.138325,208.056396 54.959747,203.509155 
	C59.238342,199.673523 63.486904,196.189880 67.831078,192.383667 
	C68.716743,190.909790 69.506798,189.758484 70.987526,187.600693 
	C67.959763,188.091370 66.211342,188.424393 64.448799,188.644028 
	C63.134590,188.807800 61.221096,189.433395 60.569675,188.811279 
	C55.347511,183.823959 48.962559,186.940140 43.207809,185.946274 
	C41.558804,185.661469 39.691261,184.943573 38.528858,183.806061 
	C28.411451,173.905487 18.368401,163.925964 8.486832,153.790909 
	C7.169691,152.439972 6.218328,150.091461 6.210468,148.200287 
	C6.074105,115.388985 6.067606,82.576744 6.219181,49.765568 
	C6.228557,47.735767 7.274513,45.215485 8.696780,43.765709 
	C20.242582,31.996613 31.934902,20.368456 43.756420,8.876179 
	C45.224590,7.448898 47.707027,6.323176 49.725224,6.313950 
	C83.702286,6.158620 117.680481,6.158160 151.657532,6.315120 
	C153.672073,6.324426 156.167175,7.464624 157.612381,8.906663 
	C169.046188,20.315397 180.356110,31.852264 191.483093,43.559826 
	C192.980148,45.135006 193.940750,47.872982 193.968460,50.087303 
	C194.170578,66.240784 194.070541,82.398041 193.532303,99.006393 
	C175.766800,99.458679 158.534912,99.458679 141.303024,99.458679 
	C141.252762,99.820595 141.202499,100.182510 141.152237,100.544434 
	C142.028198,101.240227 142.904175,101.936028 143.780136,102.631828 
	C144.346268,103.400558 144.912399,104.169281 145.747864,105.048218 
M134.347961,67.818970 
	C134.856125,71.343040 135.364273,74.867111 136.284302,78.900627 
	C137.446869,79.808998 138.708954,80.616226 139.753662,81.644356 
	C143.131241,84.968292 142.910538,87.286583 138.275879,90.349403 
	C136.974777,90.691803 135.673660,91.034203 134.372559,91.376595 
	C134.927094,92.473053 135.481628,93.569519 136.958557,94.811913 
	C153.961395,94.765358 170.964218,94.718803 188.596222,94.707695 
	C188.722900,94.137878 188.849594,93.568062 189.111435,92.069633 
	C189.119217,78.739845 189.232468,65.408394 189.023346,52.082005 
	C188.991241,50.036217 187.971359,47.542717 186.563690,46.056057 
	C176.599716,35.533123 166.517609,25.115227 156.201920,14.938814 
	C154.457504,13.217953 151.429108,12.030828 148.951889,11.954078 
	C138.464691,11.629162 127.961617,11.816558 117.464348,11.816679 
	C114.040955,11.816718 110.617561,11.816685 106.264969,11.816685 
	C107.382805,14.358603 107.655075,16.733690 108.946663,17.615070 
	C114.988754,21.738216 115.166489,22.007601 111.237183,27.872982 
	C114.494926,33.885967 117.626694,39.596905 120.659836,45.359749 
	C121.008186,46.021614 121.164749,47.224133 120.798302,47.747570 
	C119.068748,50.218067 121.040688,51.115963 122.419853,52.501522 
	C125.366005,55.461334 128.007675,58.603886 123.088562,62.927834 
	C119.352028,63.444489 115.615494,63.961143 111.701851,64.502289 
	C111.975929,65.217926 112.128609,66.032478 112.313713,66.039917 
	C119.564957,66.331154 126.819168,66.548897 134.091736,66.941109 
	C134.091736,66.941109 134.255814,66.916489 134.347961,67.818970 
M113.164696,232.859390 
	C119.541992,233.301849 125.919296,233.744308 132.626587,234.209671 
	C132.626587,227.468445 132.677277,221.701096 132.555267,215.937408 
	C132.541718,215.297409 131.543961,214.678223 130.212082,213.857941 
	C129.137924,213.941269 128.063782,214.024597 126.082550,214.045761 
	C122.207512,213.874969 118.332474,213.704163 114.474693,213.534119 
	C114.045181,218.235580 113.600174,223.106598 112.963814,228.776764 
	C113.032356,229.860123 113.100899,230.943466 113.164696,232.859390 
M94.946762,227.064056 
	C94.933243,220.818649 95.512199,214.445450 91.636497,209.129395 
	C88.499832,212.148422 85.667641,214.874405 82.005081,217.700760 
	C80.418373,218.088211 78.831665,218.475677 77.323944,218.843842 
	C77.323944,223.899765 77.323944,228.654190 77.323944,233.593567 
	C83.351303,233.593567 89.100151,233.593567 95.334808,233.593567 
	C95.154602,231.523743 95.000122,229.749298 94.946762,227.064056 
M120.060150,142.266251 
	C119.925652,142.624069 119.791153,142.981888 119.878906,143.979294 
	C125.552826,149.977264 132.454514,153.369354 140.617355,154.893829 
	C143.279465,155.391006 146.441147,157.809998 147.562439,160.200089 
	C148.212891,161.586578 145.303864,164.691803 143.899765,166.963730 
	C143.476044,167.649353 142.681274,168.093735 142.134995,168.717407 
	C137.740540,173.734467 134.939850,174.113678 129.235580,170.845551 
	C126.219086,169.117325 122.982613,167.773056 119.845459,166.255432 
	C119.431534,166.716736 119.017609,167.178024 118.603691,167.639313 
	C119.481209,169.450027 120.061081,171.500839 121.291847,173.026596 
	C125.036659,177.668976 129.945648,179.830048 136.016632,180.300522 
	C138.806946,180.516769 141.913208,182.317795 143.933823,184.341248 
	C144.899155,185.307892 143.887253,188.527084 143.340881,190.613388 
	C143.047409,191.734070 141.843857,192.616394 140.925262,193.763199 
	C152.650421,197.943924 156.406311,207.462799 157.990662,218.316284 
	C158.635529,222.733856 156.050507,225.085800 151.729721,224.105576 
	C149.362656,223.568573 147.105743,222.313446 144.959702,221.098572 
	C142.721588,219.831573 140.676453,218.223679 137.619431,216.129440 
	C137.619431,224.471313 137.619431,231.678253 137.619431,239.122711 
	C133.028687,239.122711 129.039124,239.122711 125.049568,239.122711 
	C121.132233,239.122711 117.214890,239.122711 113.342751,239.122711 
	C113.342751,242.376617 113.427635,244.871643 113.326576,247.359100 
	C113.042343,254.355423 113.638329,261.670685 118.416267,266.678711 
	C123.094666,271.582367 129.269867,275.439331 135.428696,278.441589 
	C141.538269,281.419830 147.705429,283.435120 146.776047,291.696899 
	C153.766632,293.147919 158.912354,291.908661 163.626221,286.533539 
	C170.751587,278.408600 178.903259,271.191040 186.401398,263.379242 
	C187.829300,261.891632 189.010025,259.440155 189.020157,257.426910 
	C189.181503,225.436020 189.180588,193.443817 189.020538,161.452896 
	C189.010498,159.445953 187.854385,156.983185 186.423492,155.525757 
	C180.591324,149.585480 173.875687,144.432022 168.550537,138.093903 
	C161.058762,129.176956 152.308502,125.278511 140.725632,127.024590 
	C136.213730,127.704735 131.513535,127.135765 126.432198,127.135765 
	C130.016296,129.961807 133.190994,131.911560 135.580231,134.567825 
	C136.898788,136.033737 137.776016,138.970932 137.209335,140.709335 
	C136.776535,142.037048 133.790085,143.169220 131.892197,143.248047 
	C128.103317,143.405426 124.281929,142.779739 120.060150,142.266251 
M63.710300,174.349670 
	C60.941635,174.888992 58.170067,175.823013 55.405521,175.802673 
	C54.003933,175.792374 52.008987,174.328705 51.426533,173.014832 
	C51.016098,172.089020 52.338997,170.161926 53.255219,168.962372 
	C53.870689,168.156555 55.128082,167.841049 56.050888,167.332291 
	C54.658165,162.668747 54.958355,161.939041 58.666122,159.957977 
	C59.971432,159.260559 61.113621,158.226654 62.458347,157.639771 
	C67.305862,155.524139 72.094864,153.148056 77.139984,151.668076 
	C79.455513,150.988831 81.824638,150.813538 80.937828,148.121597 
	C80.520325,146.854233 77.696968,145.637100 75.993317,145.676407 
	C71.092041,145.789520 66.205818,146.554413 61.500610,147.043777 
	C59.718204,142.135849 61.399662,139.007385 64.882393,137.017578 
	C68.026817,135.221039 71.589951,134.174149 74.857033,132.569824 
	C77.144447,131.446564 79.244400,129.941544 81.428070,128.607025 
	C81.200821,128.075943 80.973579,127.544853 80.746338,127.013763 
	C77.032570,127.013763 73.318810,127.013763 69.601562,127.013763 
	C69.318115,124.879784 69.106377,123.285713 68.870972,121.513458 
	C65.678635,122.016243 62.747627,122.594551 59.788723,122.916489 
	C55.385860,123.395508 52.512852,120.978821 53.183434,116.599838 
	C53.571655,114.064674 55.251019,111.356819 57.127243,109.522270 
	C59.073174,107.619568 61.890968,106.532051 64.448029,105.348526 
	C68.430641,103.505188 70.507683,100.919350 68.799072,96.407410 
	C61.241024,95.914047 59.382141,92.597115 63.819492,86.614494 
	C67.839729,81.194252 70.436707,75.654808 69.315819,68.780029 
	C69.225662,68.227036 69.637856,67.592140 69.886711,66.761230 
	C76.179031,66.761230 82.334915,66.682816 88.487381,66.793877 
	C91.623848,66.850510 93.042343,65.693665 92.528549,61.961662 
	C89.949623,63.108395 87.746666,64.742989 85.423782,64.936279 
	C83.109024,65.128876 80.245140,64.438210 78.439987,63.061939 
	C77.203156,62.118977 76.320885,58.536442 77.095322,57.528309 
	C79.653954,54.197582 81.048119,50.678249 82.336990,46.714718 
	C83.235268,43.952370 86.842354,42.070881 89.439926,39.605606 
	C86.713036,34.619865 88.795143,30.608297 93.057228,26.921673 
	C86.778519,19.432173 94.410461,16.534765 99.731888,11.821030 
	C81.846138,11.821030 65.867691,11.762739 49.891441,11.923324 
	C48.499615,11.937312 46.873863,13.138869 45.776669,14.216379 
	C34.956463,24.842422 24.165241,35.500195 13.544889,46.324680 
	C12.227571,47.667320 11.299321,50.029285 11.291101,51.923691 
	C11.154420,83.422920 11.146531,114.923141 11.302731,146.422180 
	C11.312793,148.451248 12.400974,150.946701 13.822364,152.419708 
	C22.384636,161.292923 31.098637,170.026962 40.001019,178.558014 
	C41.577194,180.068436 44.209217,180.847916 46.472897,181.201370 
	C53.615662,182.316696 60.199810,181.095215 65.996323,175.295242 
	C66.588776,175.087402 67.181229,174.879547 67.773682,174.671692 
	C67.752068,174.488068 67.730453,174.304443 67.708832,174.120819 
	C66.642723,174.176422 65.576614,174.232010 63.710300,174.349670 
M143.204742,287.260040 
	C142.124954,286.065643 141.242401,284.558899 139.931244,283.730865 
	C134.235855,280.134155 128.665939,276.191803 122.583183,273.389099 
	C112.941429,268.946564 110.925423,260.372925 110.438881,251.532654 
	C109.707748,238.248047 110.116562,224.899170 110.121750,211.577667 
	C110.122330,210.089996 110.649002,208.602524 110.822685,207.688583 
	C115.300903,208.754654 119.123840,210.516556 122.883774,210.391037 
	C132.078568,210.084106 139.721176,213.118164 146.813187,218.676865 
	C148.871674,220.290329 151.884018,220.686783 154.837372,221.781311 
	C154.979721,210.093140 149.640457,200.453659 142.086884,197.397293 
	C135.929260,194.905746 135.929260,194.905746 140.152267,189.917496 
	C142.879715,186.695801 142.015778,184.076981 137.835648,183.195892 
	C136.550629,182.925049 135.169769,183.147980 133.851456,182.989578 
	C126.410576,182.095551 120.556007,178.516235 117.153145,171.845444 
	C116.196678,169.970459 116.336334,166.772659 117.355362,164.957565 
	C117.912109,163.965851 121.537048,164.032791 123.464539,164.631897 
	C126.272484,165.504700 128.850220,167.197479 131.429474,168.705856 
	C134.428757,170.459915 137.008072,170.593384 139.292496,167.541306 
	C140.180313,166.355148 141.345032,165.366150 142.437851,164.345398 
	C146.083771,160.939941 145.852295,159.550598 141.273804,157.924347 
	C140.180496,157.535995 139.038055,157.131943 137.897064,157.056931 
	C130.650970,156.580505 125.114388,152.437866 119.866951,148.155365 
	C117.374100,146.120895 115.972549,142.749268 113.354713,138.930206 
	C121.566521,139.461090 128.140076,139.886063 134.713623,140.311035 
	C134.993896,139.561722 135.274170,138.812408 135.554443,138.063095 
	C132.348373,135.708282 129.248489,133.189087 125.912964,131.034698 
	C119.933922,127.172905 113.936005,123.449387 114.306274,115.023293 
	C114.537094,109.770775 117.123169,108.053833 121.177223,111.342804 
	C128.386475,117.191513 136.874878,114.819550 144.844620,116.826210 
	C145.498901,111.323288 144.307709,106.811172 140.462891,104.082863 
	C135.446014,100.522842 132.077316,94.880882 124.845245,93.820282 
	C121.023590,93.259827 117.777023,88.777916 114.270821,86.066467 
	C114.324905,85.712921 114.378998,85.359367 114.433083,85.005814 
	C122.562759,85.846672 130.692429,86.687531 138.822098,87.528389 
	C139.040527,86.953026 139.258957,86.377663 139.477371,85.802299 
	C138.018982,84.418045 136.773666,82.631622 135.062271,81.724968 
	C129.927597,79.004715 124.574402,76.700600 119.379944,74.088058 
	C116.577065,72.678352 113.503906,71.392860 111.349770,69.250038 
	C109.885925,67.793884 109.067772,64.817253 109.427238,62.779179 
	C109.598549,61.807941 113.147751,61.225101 115.235779,60.852432 
	C117.778389,60.398624 120.393570,60.351349 122.977356,60.128231 
	C123.221367,59.323616 123.465378,58.519005 123.709389,57.714390 
	C119.838104,54.835732 115.966812,51.957073 112.474136,49.359943 
	C114.114311,48.704281 115.927063,47.979630 117.739822,47.254978 
	C115.847939,44.638454 113.956055,42.021935 111.898209,39.175888 
	C116.063538,33.213173 105.190903,32.084183 106.586418,27.553778 
	C108.610901,25.361155 109.977150,23.881435 112.097092,21.585428 
	C103.173294,20.457575 105.150063,13.722383 102.905838,7.628436 
	C102.051819,9.934856 101.787094,10.955780 101.313301,11.868126 
	C100.191475,14.028282 99.463577,16.771917 97.695351,18.145212 
	C92.730431,22.001215 92.593033,22.556608 98.634026,25.558712 
	C95.766785,30.008530 85.633995,33.652500 96.752884,39.848133 
	C85.356110,44.371548 82.166092,48.326912 86.780914,52.248020 
	C85.637573,53.240555 84.356430,54.059898 83.472588,55.189972 
	C82.209015,56.805573 79.915543,59.252876 80.386192,60.281231 
	C81.808693,63.389317 84.619255,62.514648 87.093658,60.963066 
	C87.651993,60.612961 88.292244,60.218586 88.915932,60.179188 
	C91.115105,60.040264 93.323471,60.046783 95.528351,59.998135 
	C95.227203,62.383980 95.568771,65.141243 94.459808,67.060272 
	C93.118156,69.381958 90.791656,71.400360 88.444885,72.803047 
	C85.934937,74.303268 82.934265,75.025726 80.096466,75.925858 
	C72.357536,78.380608 65.338776,86.097435 65.024445,93.016411 
	C70.579636,93.569023 75.100357,90.852249 79.142021,87.894356 
	C83.231613,84.901390 86.701752,83.972282 90.569923,87.717941 
	C91.686745,88.799393 92.728333,89.958527 93.804413,91.082047 
	C92.538422,92.029518 91.403526,93.469704 89.985809,93.846924 
	C78.091866,97.011581 69.793083,106.413200 59.031799,111.506874 
	C58.600082,111.711212 58.079067,112.097786 57.950729,112.509026 
	C57.342125,114.459129 56.855473,116.447296 56.325382,118.421906 
	C58.066658,118.855095 59.926472,119.916847 61.529064,119.614624 
	C69.211365,118.165886 76.797020,116.201920 84.483276,114.779007 
	C86.110634,114.477745 88.551056,115.179581 89.622086,116.338547 
	C90.473068,117.259384 90.494522,120.066002 89.697495,121.204727 
	C85.297844,127.490646 81.861923,134.763245 72.889404,136.352280 
	C69.246971,136.997345 65.286819,138.664185 63.546730,143.799042 
	C67.567986,143.428589 70.972733,142.938141 74.387177,142.857315 
	C77.033401,142.794662 79.792793,142.902054 82.292984,143.640808 
	C83.240112,143.920654 84.249153,146.262817 84.089958,147.520676 
	C83.799088,149.818832 83.300797,153.038040 81.731178,154.017365 
	C78.996094,155.723816 75.288437,155.775406 72.158775,156.967743 
	C67.297379,158.819839 62.578728,161.046600 57.530319,163.231049 
	C59.691334,165.109177 60.879631,166.141922 62.067932,167.174667 
	C60.741310,168.169937 59.481697,169.276688 58.067711,170.126617 
	C56.849243,170.859024 55.454899,171.298859 54.138313,171.868042 
	C54.412643,172.584076 54.686974,173.300110 54.961304,174.016144 
	C63.169205,171.095734 71.360390,168.126648 79.599709,165.297775 
	C81.166000,164.760025 82.922913,164.777451 84.591873,164.538696 
	C84.014687,166.286560 83.971298,168.748108 82.762840,169.651978 
	C78.711739,172.681992 74.425270,175.529175 69.881073,177.727219 
	C66.095650,179.558243 62.379517,180.984863 61.055355,185.968140 
	C65.463402,185.220169 69.448540,184.543961 73.647682,183.831436 
	C74.115288,192.664688 68.579277,197.279007 62.978470,201.292160 
	C54.487019,207.376541 50.202148,215.986771 46.852737,225.322144 
	C46.371693,226.662888 46.854527,228.349487 46.891293,229.876022 
	C48.328297,229.784637 50.502487,230.264481 51.085857,229.511627 
	C55.816761,223.406204 62.790451,222.130157 69.556473,220.214935 
	C70.874313,219.841904 71.875885,218.389420 73.055275,217.476074 
	C73.830315,216.875885 74.666603,215.862030 75.468773,215.868439 
	C81.285194,215.915024 84.419548,212.251205 87.285927,207.926422 
	C89.510475,204.570053 92.562859,205.076035 94.810616,207.583237 
	C96.367844,209.320190 97.729576,211.987579 97.732178,214.240906 
	C97.749397,229.182693 97.445862,244.126648 97.085403,259.065979 
	C96.980888,263.397644 94.523293,266.037109 90.216499,267.099152 
	C85.742378,268.202423 82.434708,270.894379 80.869675,275.326630 
	C79.087639,280.373413 75.670006,283.158539 70.379173,284.114624 
	C68.803963,284.399292 67.468925,286.013000 65.324280,287.491547 
	C66.586609,288.065338 67.846809,289.134155 69.111572,289.139587 
	C92.370316,289.239746 115.629677,289.234161 138.888611,289.160492 
	C140.323288,289.155945 141.755585,288.402496 143.204742,287.260040 
M45.920280,292.195496 
	C48.749615,292.194580 51.601711,291.967499 54.402576,292.249451 
	C57.973232,292.608856 59.744370,291.304779 61.744179,288.141144 
	C63.671001,285.092987 67.603996,283.319946 70.635582,280.960999 
	C73.125885,279.023224 76.625107,277.543945 77.847092,274.986847 
	C80.482292,269.472534 84.095894,265.849152 89.878281,263.899628 
	C91.548393,263.336548 93.641586,261.249054 93.856842,259.635712 
	C94.744347,252.983841 94.984474,246.245575 95.507545,238.908066 
	C87.045189,238.908066 79.665016,238.908066 71.896469,238.908066 
	C71.896469,233.288376 71.896469,228.235977 71.896469,222.876221 
	C70.202774,223.487335 68.998543,224.220551 67.742874,224.322968 
	C62.440338,224.755447 58.186638,226.385376 54.508076,230.841797 
	C52.978046,232.695374 47.760273,233.107193 45.091446,232.024719 
	C41.522461,230.577103 43.057590,226.624954 44.193558,223.632324 
	C45.343418,220.603073 46.616562,217.620590 47.844421,214.596161 
	C35.441597,214.596161 23.522860,214.596161 11.190595,214.596161 
	C11.190595,229.509583 11.136843,244.119019 11.287030,258.726379 
	C11.299803,259.968658 12.467804,261.397064 13.446276,262.400513 
	C22.391434,271.574219 31.372887,280.713776 40.463062,289.743164 
	C41.638523,290.910736 43.492470,291.395233 45.920280,292.195496 
M133.450256,292.038910 
	C109.860283,292.038910 86.270302,292.038910 62.680328,292.038910 
	C62.681477,292.257538 62.682629,292.476135 62.683781,292.694763 
	C89.558617,292.694763 116.433464,292.694763 143.308304,292.694763 
	C143.310394,292.476196 143.312485,292.257660 143.314575,292.039093 
	C140.351410,292.039093 137.388260,292.039093 133.450256,292.038910 
M74.861565,120.171692 
	C74.726974,120.453720 74.592384,120.735756 74.457802,121.017792 
	C78.379036,121.133644 82.305298,121.369362 86.214828,121.205696 
	C86.676338,121.186378 87.046143,118.976555 87.738853,116.969879 
	C82.953728,118.116074 79.279015,118.996284 74.861565,120.171692 
z"/>
<path fill="#A30226" opacity="1.000000" stroke="none" 
	d="
M144.077820,102.300484 
	C142.904175,101.936028 142.028198,101.240227 141.152237,100.544434 
	C141.202499,100.182510 141.252762,99.820595 141.303024,99.458679 
	C158.534912,99.458679 175.766800,99.458679 193.466415,99.433693 
	C192.123108,99.940956 190.316711,100.915398 188.500290,100.934441 
	C175.713837,101.068558 162.925049,100.966118 150.137726,101.049271 
	C148.215073,101.061775 146.296143,101.648201 144.077820,102.300484 
z"/>
<path fill="#EBC6CB" opacity="1.000000" stroke="none" 
	d="
M194.259064,293.206085 
	C197.760406,292.724487 196.449997,294.902008 195.754944,296.733215 
	C195.026642,296.578003 194.648239,296.235626 194.231781,295.528839 
	C194.157013,294.456360 194.120316,293.748260 194.093353,293.117737 
	C194.103104,293.195312 194.259064,293.206085 194.259064,293.206085 
z"/>
<path fill="#FFFEFE" opacity="1.000000" stroke="none" 
	d="
M189.158569,296.856171 
	C189.366379,295.619537 189.574188,294.382874 190.175446,293.221252 
	C190.568878,293.296295 190.663773,293.212799 190.612900,293.587952 
	C190.652344,294.974182 190.742676,295.985229 190.566284,296.893036 
	C189.919235,296.811920 189.538910,296.834045 189.158569,296.856171 
z"/>
<path fill="#D98C97" opacity="1.000000" stroke="none" 
	d="
M194.269852,295.893250 
	C194.648239,296.235626 195.026642,296.578003 195.640228,297.023987 
	C195.146484,297.742615 194.417511,298.357635 193.466949,298.587219 
	C193.257965,297.726898 193.270569,297.251984 193.476212,296.664856 
	C193.893753,296.354950 194.093964,296.135162 194.269852,295.893250 
z"/>
<path fill="#DE99A2" opacity="1.000000" stroke="none" 
	d="
M189.219223,297.172424 
	C189.538910,296.834045 189.919235,296.811920 190.822647,296.857758 
	C191.517303,296.907990 191.688904,296.890228 191.869659,297.208282 
	C191.914429,297.990143 191.950027,298.436188 191.985626,298.882263 
	C191.083725,298.417755 190.181793,297.953217 189.219223,297.172424 
z"/>
<path fill="#C86375" opacity="1.000000" stroke="none" 
	d="
M190.515411,293.262604 
	C191.579208,293.014618 192.696457,292.800354 194.036377,292.896057 
	C194.259064,293.206085 194.103104,293.195312 193.667328,293.163330 
	C192.375641,293.158508 191.519699,293.185669 190.663773,293.212799 
	C190.663773,293.212799 190.568878,293.296295 190.515411,293.262604 
z"/>
<path fill="#F6E6E5" opacity="1.000000" stroke="none" 
	d="
M192.259186,298.916046 
	C191.950027,298.436188 191.914429,297.990143 191.985718,296.964783 
	C192.489456,296.516052 192.886322,296.646545 193.283188,296.777069 
	C193.270569,297.251984 193.257965,297.726898 193.163391,298.549438 
	C192.898529,298.914673 192.715637,298.932251 192.259186,298.916046 
z"/>
<path fill="#047155" opacity="1.000000" stroke="none" 
	d="
M66.023842,287.017761 
	C67.468925,286.013000 68.803963,284.399292 70.379173,284.114624 
	C75.670006,283.158539 79.087639,280.373413 80.869675,275.326630 
	C82.434708,270.894379 85.742378,268.202423 90.216499,267.099152 
	C94.523293,266.037109 96.980888,263.397644 97.085403,259.065979 
	C97.445862,244.126648 97.749397,229.182693 97.732178,214.240906 
	C97.729576,211.987579 96.367844,209.320190 94.810616,207.583237 
	C92.562859,205.076035 89.510475,204.570053 87.285927,207.926422 
	C84.419548,212.251205 81.285194,215.915024 75.468773,215.868439 
	C74.666603,215.862030 73.830315,216.875885 73.055275,217.476074 
	C71.875885,218.389420 70.874313,219.841904 69.556473,220.214935 
	C62.790451,222.130157 55.816761,223.406204 51.085857,229.511627 
	C50.502487,230.264481 48.328297,229.784637 46.891296,229.876022 
	C46.854527,228.349487 46.371693,226.662888 46.852737,225.322144 
	C50.202148,215.986771 54.487019,207.376541 62.978470,201.292160 
	C68.579277,197.279007 74.115288,192.664688 73.647682,183.831436 
	C69.448540,184.543961 65.463402,185.220169 61.055355,185.968140 
	C62.379517,180.984863 66.095650,179.558243 69.881073,177.727219 
	C74.425270,175.529175 78.711739,172.681992 82.762840,169.651978 
	C83.971298,168.748108 84.014687,166.286560 84.591873,164.538696 
	C82.922913,164.777451 81.166000,164.760025 79.599709,165.297775 
	C71.360390,168.126648 63.169205,171.095734 54.961304,174.016144 
	C54.686974,173.300110 54.412643,172.584076 54.138313,171.868042 
	C55.454899,171.298859 56.849243,170.859024 58.067711,170.126617 
	C59.481697,169.276688 60.741310,168.169937 62.067932,167.174667 
	C60.879631,166.141922 59.691334,165.109177 57.530319,163.231049 
	C62.578728,161.046600 67.297379,158.819839 72.158775,156.967743 
	C75.288437,155.775406 78.996094,155.723816 81.731178,154.017365 
	C83.300797,153.038040 83.799088,149.818832 84.089958,147.520676 
	C84.249153,146.262817 83.240112,143.920654 82.292984,143.640808 
	C79.792793,142.902054 77.033401,142.794662 74.387177,142.857315 
	C70.972733,142.938141 67.567986,143.428589 63.546730,143.799042 
	C65.286819,138.664185 69.246971,136.997345 72.889404,136.352280 
	C81.861923,134.763245 85.297844,127.490646 89.697495,121.204727 
	C90.494522,120.066002 90.473068,117.259384 89.622086,116.338547 
	C88.551056,115.179581 86.110634,114.477745 84.483276,114.779007 
	C76.797020,116.201920 69.211365,118.165886 61.529064,119.614624 
	C59.926472,119.916847 58.066658,118.855095 56.325382,118.421906 
	C56.855473,116.447296 57.342125,114.459129 57.950729,112.509026 
	C58.079067,112.097786 58.600082,111.711212 59.031799,111.506874 
	C69.793083,106.413200 78.091866,97.011581 89.985809,93.846924 
	C91.403526,93.469704 92.538422,92.029518 93.804413,91.082047 
	C92.728333,89.958527 91.686745,88.799393 90.569923,87.717941 
	C86.701752,83.972282 83.231613,84.901390 79.142021,87.894356 
	C75.100357,90.852249 70.579636,93.569023 65.024445,93.016411 
	C65.338776,86.097435 72.357536,78.380608 80.096466,75.925858 
	C82.934265,75.025726 85.934937,74.303268 88.444885,72.803047 
	C90.791656,71.400360 93.118156,69.381958 94.459808,67.060272 
	C95.568771,65.141243 95.227203,62.383980 95.528351,59.998135 
	C93.323471,60.046783 91.115105,60.040264 88.915932,60.179188 
	C88.292244,60.218586 87.651993,60.612961 87.093658,60.963066 
	C84.619255,62.514648 81.808693,63.389317 80.386192,60.281231 
	C79.915543,59.252876 82.209015,56.805573 83.472588,55.189972 
	C84.356430,54.059898 85.637573,53.240555 86.780914,52.248020 
	C82.166092,48.326912 85.356110,44.371548 96.752884,39.848133 
	C85.633995,33.652500 95.766785,30.008530 98.634026,25.558712 
	C92.593033,22.556608 92.730431,22.001215 97.695351,18.145212 
	C99.463577,16.771917 100.191475,14.028282 101.313301,11.868126 
	C101.787094,10.955780 102.051819,9.934856 102.905838,7.628436 
	C105.150063,13.722383 103.173294,20.457575 112.097092,21.585428 
	C109.977150,23.881435 108.610901,25.361155 106.586418,27.553778 
	C105.190903,32.084183 116.063538,33.213173 111.898209,39.175888 
	C113.956055,42.021935 115.847939,44.638454 117.739822,47.254978 
	C115.927063,47.979630 114.114311,48.704281 112.474136,49.359943 
	C115.966812,51.957073 119.838104,54.835732 123.709389,57.714390 
	C123.465378,58.519005 123.221367,59.323616 122.977356,60.128231 
	C120.393570,60.351349 117.778389,60.398624 115.235779,60.852432 
	C113.147751,61.225101 109.598549,61.807941 109.427238,62.779179 
	C109.067772,64.817253 109.885925,67.793884 111.349770,69.250038 
	C113.503906,71.392860 116.577065,72.678352 119.379944,74.088058 
	C124.574402,76.700600 129.927597,79.004715 135.062271,81.724968 
	C136.773666,82.631622 138.018982,84.418045 139.477371,85.802299 
	C139.258957,86.377663 139.040527,86.953026 138.822098,87.528389 
	C130.692429,86.687531 122.562759,85.846672 114.433083,85.005814 
	C114.378998,85.359367 114.324905,85.712921 114.270821,86.066467 
	C117.777023,88.777916 121.023590,93.259827 124.845245,93.820282 
	C132.077316,94.880882 135.446014,100.522842 140.462891,104.082863 
	C144.307709,106.811172 145.498901,111.323288 144.844620,116.826210 
	C136.874878,114.819550 128.386475,117.191513 121.177223,111.342804 
	C117.123169,108.053833 114.537094,109.770775 114.306274,115.023293 
	C113.936005,123.449387 119.933922,127.172905 125.912964,131.034698 
	C129.248489,133.189087 132.348373,135.708282 135.554443,138.063095 
	C135.274170,138.812408 134.993896,139.561722 134.713623,140.311035 
	C128.140076,139.886063 121.566521,139.461090 113.354713,138.930206 
	C115.972549,142.749268 117.374100,146.120895 119.866951,148.155365 
	C125.114388,152.437866 130.650970,156.580505 137.897064,157.056931 
	C139.038055,157.131943 140.180496,157.535995 141.273804,157.924347 
	C145.852295,159.550598 146.083771,160.939941 142.437851,164.345398 
	C141.345032,165.366150 140.180313,166.355148 139.292496,167.541306 
	C137.008072,170.593384 134.428757,170.459915 131.429474,168.705856 
	C128.850220,167.197479 126.272484,165.504700 123.464539,164.631897 
	C121.537048,164.032791 117.912109,163.965851 117.355362,164.957565 
	C116.336334,166.772659 116.196678,169.970459 117.153145,171.845444 
	C120.556007,178.516235 126.410576,182.095551 133.851456,182.989578 
	C135.169769,183.147980 136.550629,182.925049 137.835648,183.195892 
	C142.015778,184.076981 142.879715,186.695801 140.152267,189.917496 
	C135.929260,194.905746 135.929260,194.905746 142.086884,197.397293 
	C149.640457,200.453659 154.979721,210.093140 154.837372,221.781311 
	C151.884018,220.686783 148.871674,220.290329 146.813187,218.676865 
	C139.721176,213.118164 132.078568,210.084106 122.883774,210.391037 
	C119.123840,210.516556 115.300903,208.754654 110.822685,207.688583 
	C110.649002,208.602524 110.122330,210.089996 110.121750,211.577667 
	C110.116562,224.899170 109.707748,238.248047 110.438881,251.532654 
	C110.925423,260.372925 112.941429,268.946564 122.583183,273.389099 
	C128.665939,276.191803 134.235855,280.134155 139.931244,283.730865 
	C141.242401,284.558899 142.124954,286.065643 142.715454,287.625458 
	C119.103859,287.992371 95.981453,288.021149 72.859344,287.952698 
	C70.579941,287.945953 68.302299,287.343628 66.023842,287.017761 
z"/>
<path fill="#A80733" opacity="1.000000" stroke="none" 
	d="
M65.324837,175.403290 
	C60.199810,181.095215 53.615662,182.316696 46.472897,181.201370 
	C44.209217,180.847916 41.577194,180.068436 40.001019,178.558014 
	C31.098637,170.026962 22.384636,161.292923 13.822364,152.419708 
	C12.400974,150.946701 11.312793,148.451248 11.302731,146.422180 
	C11.146531,114.923141 11.154420,83.422920 11.291101,51.923691 
	C11.299321,50.029285 12.227571,47.667320 13.544889,46.324680 
	C24.165241,35.500195 34.956463,24.842422 45.776669,14.216379 
	C46.873863,13.138869 48.499615,11.937312 49.891441,11.923324 
	C65.867691,11.762739 81.846138,11.821030 99.731888,11.821030 
	C94.410461,16.534765 86.778519,19.432173 93.057228,26.921673 
	C88.795143,30.608297 86.713036,34.619865 89.439926,39.605606 
	C86.842354,42.070881 83.235268,43.952370 82.336990,46.714718 
	C81.048119,50.678249 79.653954,54.197582 77.095322,57.528309 
	C76.320885,58.536442 77.203156,62.118977 78.439987,63.061939 
	C80.245140,64.438210 83.109024,65.128876 85.423782,64.936279 
	C87.746666,64.742989 89.949623,63.108395 92.528549,61.961662 
	C93.042343,65.693665 91.623848,66.850510 88.487381,66.793877 
	C82.334915,66.682816 76.179031,66.761230 69.886711,66.761230 
	C69.637856,67.592140 69.225662,68.227036 69.315819,68.780029 
	C70.436707,75.654808 67.839729,81.194252 63.819492,86.614494 
	C59.382141,92.597115 61.241024,95.914047 68.799072,96.407410 
	C70.507683,100.919350 68.430641,103.505188 64.448029,105.348526 
	C61.890968,106.532051 59.073174,107.619568 57.127243,109.522270 
	C55.251019,111.356819 53.571655,114.064674 53.183434,116.599838 
	C52.512852,120.978821 55.385860,123.395508 59.788723,122.916489 
	C62.747627,122.594551 65.678635,122.016243 68.870972,121.513458 
	C69.106377,123.285713 69.318115,124.879784 69.601562,127.013763 
	C73.318810,127.013763 77.032570,127.013763 80.746338,127.013763 
	C80.973579,127.544853 81.200821,128.075943 81.428070,128.607025 
	C79.244400,129.941544 77.144447,131.446564 74.857033,132.569824 
	C71.589951,134.174149 68.026817,135.221039 64.882393,137.017578 
	C61.399662,139.007385 59.718204,142.135849 61.500610,147.043777 
	C66.205818,146.554413 71.092041,145.789520 75.993317,145.676407 
	C77.696968,145.637100 80.520325,146.854233 80.937828,148.121597 
	C81.824638,150.813538 79.455513,150.988831 77.139984,151.668076 
	C72.094864,153.148056 67.305862,155.524139 62.458347,157.639771 
	C61.113621,158.226654 59.971432,159.260559 58.666122,159.957977 
	C54.958355,161.939041 54.658165,162.668747 56.050888,167.332291 
	C55.128082,167.841049 53.870689,168.156555 53.255219,168.962372 
	C52.338997,170.161926 51.016098,172.089020 51.426533,173.014832 
	C52.008987,174.328705 54.003933,175.792374 55.405521,175.802673 
	C58.170067,175.823013 60.941635,174.888992 64.311798,174.599152 
	C65.050476,175.033524 65.187653,175.218399 65.324837,175.403290 
z"/>
<path fill="#A80733" opacity="1.000000" stroke="none" 
	d="
M120.473969,142.477448 
	C124.281929,142.779739 128.103317,143.405426 131.892197,143.248047 
	C133.790085,143.169220 136.776535,142.037048 137.209335,140.709335 
	C137.776016,138.970932 136.898788,136.033737 135.580231,134.567825 
	C133.190994,131.911560 130.016296,129.961807 126.432198,127.135765 
	C131.513535,127.135765 136.213730,127.704735 140.725632,127.024590 
	C152.308502,125.278511 161.058762,129.176956 168.550537,138.093903 
	C173.875687,144.432022 180.591324,149.585480 186.423492,155.525757 
	C187.854385,156.983185 189.010498,159.445953 189.020538,161.452896 
	C189.180588,193.443817 189.181503,225.436020 189.020157,257.426910 
	C189.010025,259.440155 187.829300,261.891632 186.401398,263.379242 
	C178.903259,271.191040 170.751587,278.408600 163.626221,286.533539 
	C158.912354,291.908661 153.766632,293.147919 146.776047,291.696899 
	C147.705429,283.435120 141.538269,281.419830 135.428696,278.441589 
	C129.269867,275.439331 123.094666,271.582367 118.416267,266.678711 
	C113.638329,261.670685 113.042343,254.355423 113.326576,247.359100 
	C113.427635,244.871643 113.342751,242.376617 113.342751,239.122711 
	C117.214890,239.122711 121.132233,239.122711 125.049568,239.122711 
	C129.039124,239.122711 133.028687,239.122711 137.619431,239.122711 
	C137.619431,231.678253 137.619431,224.471313 137.619431,216.129440 
	C140.676453,218.223679 142.721588,219.831573 144.959702,221.098572 
	C147.105743,222.313446 149.362656,223.568573 151.729721,224.105576 
	C156.050507,225.085800 158.635529,222.733856 157.990662,218.316284 
	C156.406311,207.462799 152.650421,197.943924 140.925262,193.763199 
	C141.843857,192.616394 143.047409,191.734070 143.340881,190.613388 
	C143.887253,188.527084 144.899155,185.307892 143.933823,184.341248 
	C141.913208,182.317795 138.806946,180.516769 136.016632,180.300522 
	C129.945648,179.830048 125.036659,177.668976 121.291847,173.026596 
	C120.061081,171.500839 119.481209,169.450027 118.603691,167.639313 
	C119.017609,167.178024 119.431534,166.716736 119.845459,166.255432 
	C122.982613,167.773056 126.219086,169.117325 129.235580,170.845551 
	C134.939850,174.113678 137.740540,173.734467 142.134995,168.717407 
	C142.681274,168.093735 143.476044,167.649353 143.899765,166.963730 
	C145.303864,164.691803 148.212891,161.586578 147.562439,160.200089 
	C146.441147,157.809998 143.279465,155.391006 140.617355,154.893829 
	C132.454514,153.369354 125.552826,149.977264 119.975807,143.447449 
	C120.206459,142.769547 120.340218,142.623489 120.473969,142.477448 
z"/>
<path fill="#A80633" opacity="1.000000" stroke="none" 
	d="
M187.967056,94.672249 
	C170.964218,94.718803 153.961395,94.765358 136.517273,94.425163 
	C137.064438,92.833717 138.052872,91.629021 139.041306,90.424324 
	C142.910538,87.286583 143.131241,84.968292 139.753662,81.644356 
	C138.708954,80.616226 137.446869,79.808998 136.106720,78.168915 
	C135.371353,73.930305 134.813583,70.423393 134.255814,66.916489 
	C134.255814,66.916489 134.091736,66.941109 133.894165,66.531708 
	C131.846283,65.745300 129.934616,65.546509 128.164398,64.936928 
	C126.650414,64.415581 125.298668,63.423111 123.875160,62.639019 
	C128.007675,58.603886 125.366005,55.461334 122.419853,52.501522 
	C121.040688,51.115963 119.068748,50.218067 120.798302,47.747570 
	C121.164749,47.224133 121.008186,46.021614 120.659836,45.359749 
	C117.626694,39.596905 114.494926,33.885967 111.237183,27.872982 
	C115.166489,22.007601 114.988754,21.738216 108.946663,17.615070 
	C107.655075,16.733690 107.382805,14.358603 106.264969,11.816685 
	C110.617561,11.816685 114.040955,11.816718 117.464348,11.816679 
	C127.961617,11.816558 138.464691,11.629162 148.951889,11.954078 
	C151.429108,12.030828 154.457504,13.217953 156.201920,14.938814 
	C166.517609,25.115227 176.599716,35.533123 186.563690,46.056057 
	C187.971359,47.542717 188.991241,50.036217 189.023346,52.082005 
	C189.232468,65.408394 189.119217,78.739845 188.859070,92.703522 
	C188.393494,93.782356 188.180267,94.227303 187.967056,94.672249 
z"/>
<path fill="#A90833" opacity="1.000000" stroke="none" 
	d="
M45.476204,292.195801 
	C43.492470,291.395233 41.638523,290.910736 40.463062,289.743164 
	C31.372887,280.713776 22.391434,271.574219 13.446276,262.400513 
	C12.467804,261.397064 11.299803,259.968658 11.287030,258.726379 
	C11.136843,244.119019 11.190595,229.509583 11.190595,214.596161 
	C23.522860,214.596161 35.441597,214.596161 47.844421,214.596161 
	C46.616562,217.620590 45.343418,220.603073 44.193558,223.632324 
	C43.057590,226.624954 41.522461,230.577103 45.091446,232.024719 
	C47.760273,233.107193 52.978046,232.695374 54.508076,230.841797 
	C58.186638,226.385376 62.440338,224.755447 67.742874,224.322968 
	C68.998543,224.220551 70.202774,223.487335 71.896469,222.876221 
	C71.896469,228.235977 71.896469,233.288376 71.896469,238.908066 
	C79.665016,238.908066 87.045189,238.908066 95.507545,238.908066 
	C94.984474,246.245575 94.744347,252.983841 93.856842,259.635712 
	C93.641586,261.249054 91.548393,263.336548 89.878281,263.899628 
	C84.095894,265.849152 80.482292,269.472534 77.847092,274.986847 
	C76.625107,277.543945 73.125885,279.023224 70.635582,280.960999 
	C67.603996,283.319946 63.671001,285.092987 61.744179,288.141144 
	C59.744370,291.304779 57.973232,292.608856 54.402576,292.249451 
	C51.601711,291.967499 48.749615,292.194580 45.476204,292.195801 
z"/>
<path fill="#47704C" opacity="1.000000" stroke="none" 
	d="
M113.155167,227.977615 
	C113.600174,223.106598 114.045181,218.235580 114.474693,213.534119 
	C118.332474,213.704163 122.207512,213.874969 126.531685,214.535400 
	C126.980820,219.244461 126.980820,223.463882 126.980820,227.977615 
	C121.743141,227.977615 117.449158,227.977615 113.155167,227.977615 
z"/>
<path fill="#47704C" opacity="1.000000" stroke="none" 
	d="
M82.835449,217.600372 
	C85.667641,214.874405 88.499832,212.148422 91.636497,209.129395 
	C95.512199,214.445450 94.933243,220.818649 94.444031,227.522400 
	C90.392906,227.980728 86.844521,227.980728 82.835457,227.980728 
	C82.835457,223.873917 82.835457,220.737152 82.835449,217.600372 
z"/>
<path fill="#AB0E36" opacity="1.000000" stroke="none" 
	d="
M82.420273,217.650574 
	C82.835457,220.737152 82.835457,223.873917 82.835457,227.980728 
	C86.844521,227.980728 90.392906,227.980728 94.393463,227.977798 
	C95.000122,229.749298 95.154602,231.523743 95.334808,233.593567 
	C89.100151,233.593567 83.351303,233.593567 77.323944,233.593567 
	C77.323944,228.654190 77.323944,223.899765 77.323944,218.843842 
	C78.831665,218.475677 80.418373,218.088211 82.420273,217.650574 
z"/>
<path fill="#AE163F" opacity="1.000000" stroke="none" 
	d="
M113.059494,228.377197 
	C117.449158,227.977615 121.743141,227.977615 126.980820,227.977615 
	C126.980820,223.463882 126.980820,219.244461 126.985222,214.566483 
	C128.063782,214.024597 129.137924,213.941269 130.594238,214.418457 
	C130.970764,218.924316 130.786301,222.879883 131.010941,226.812042 
	C131.226013,230.577209 129.971664,232.257248 125.987694,232.026199 
	C121.729286,231.779221 117.443359,232.006546 113.169449,232.026825 
	C113.100899,230.943466 113.032356,229.860123 113.059494,228.377197 
z"/>
<path fill="#F0D4D4" opacity="1.000000" stroke="none" 
	d="
M133.937683,292.039001 
	C137.388260,292.039093 140.351410,292.039093 143.314575,292.039093 
	C143.312485,292.257660 143.310394,292.476196 143.308304,292.694763 
	C116.433464,292.694763 89.558617,292.694763 62.683781,292.694763 
	C62.682629,292.476135 62.681477,292.257538 62.680328,292.038910 
	C86.270302,292.038910 109.860283,292.038910 133.937683,292.039001 
z"/>
<path fill="#03674A" opacity="1.000000" stroke="none" 
	d="
M65.674057,287.254639 
	C68.302299,287.343628 70.579941,287.945953 72.859344,287.952698 
	C95.981453,288.021149 119.103859,287.992371 142.707581,287.994202 
	C141.755585,288.402496 140.323288,289.155945 138.888611,289.160492 
	C115.629677,289.234161 92.370316,289.239746 69.111572,289.139587 
	C67.846809,289.134155 66.586609,288.065338 65.674057,287.254639 
z"/>
<path fill="#A20024" opacity="1.000000" stroke="none" 
	d="
M113.167068,232.443115 
	C117.443359,232.006546 121.729286,231.779221 125.987694,232.026199 
	C129.971664,232.257248 131.226013,230.577209 131.010941,226.812042 
	C130.786301,222.879883 130.970764,218.924316 130.989532,214.514191 
	C131.543961,214.678223 132.541718,215.297409 132.555267,215.937408 
	C132.677277,221.701096 132.626587,227.468445 132.626587,234.209671 
	C125.919296,233.744308 119.541992,233.301849 113.167068,232.443115 
z"/>
<path fill="#A5082A" opacity="1.000000" stroke="none" 
	d="
M123.481857,62.783424 
	C125.298668,63.423111 126.650414,64.415581 128.164398,64.936928 
	C129.934616,65.546509 131.846283,65.745300 133.884796,66.449280 
	C126.819168,66.548897 119.564957,66.331154 112.313713,66.039917 
	C112.128609,66.032478 111.975929,65.217926 111.701851,64.502289 
	C115.615494,63.961143 119.352028,63.444489 123.481857,62.783424 
z"/>
<path fill="#B12445" opacity="1.000000" stroke="none" 
	d="
M75.232933,120.024094 
	C79.279015,118.996284 82.953728,118.116074 87.738853,116.969879 
	C87.046143,118.976555 86.676338,121.186378 86.214828,121.205696 
	C82.305298,121.369362 78.379036,121.133644 74.457794,121.017792 
	C74.592384,120.735756 74.726974,120.453720 75.232933,120.024094 
z"/>
<path fill="#A5082A" opacity="1.000000" stroke="none" 
	d="
M134.301880,67.367729 
	C134.813583,70.423393 135.371353,73.930305 135.900787,77.914200 
	C135.364273,74.867111 134.856125,71.343040 134.301880,67.367729 
z"/>
<path fill="#AF1D41" opacity="1.000000" stroke="none" 
	d="
M138.658600,90.386864 
	C138.052872,91.629021 137.064438,92.833717 136.056091,94.352196 
	C135.481628,93.569519 134.927094,92.473053 134.372559,91.376595 
	C135.673660,91.034203 136.974777,90.691803 138.658600,90.386864 
z"/>
<path fill="#A80733" opacity="1.000000" stroke="none" 
	d="
M64.711899,174.568130 
	C65.576614,174.232010 66.642723,174.176422 67.708832,174.120819 
	C67.730453,174.304443 67.752068,174.488068 67.773682,174.671692 
	C67.181229,174.879547 66.588776,175.087402 65.660583,175.349274 
	C65.187653,175.218399 65.050476,175.033524 64.711899,174.568130 
z"/>
<path fill="#AF1D41" opacity="1.000000" stroke="none" 
	d="
M188.281647,94.689972 
	C188.180267,94.227303 188.393494,93.782356 188.791504,93.167824 
	C188.849594,93.568062 188.722900,94.137878 188.281647,94.689972 
z"/>
<path fill="#A80733" opacity="1.000000" stroke="none" 
	d="
M119.864685,143.127655 
	C119.791153,142.981888 119.925652,142.624069 120.267059,142.371857 
	C120.340218,142.623489 120.206459,142.769547 119.864685,143.127655 
z"/>
<path fill="#B6314D" opacity="1.000000" stroke="none" 
	d="
M193.476212,296.664856 
	C192.886322,296.646545 192.489456,296.516052 191.976532,296.629028 
	C191.688904,296.890228 191.517303,296.907990 191.089355,296.960999 
	C190.742676,295.985229 190.652344,294.974182 190.612900,293.587952 
	C191.519699,293.185669 192.375641,293.158508 193.657593,293.085785 
	C194.120316,293.748260 194.157013,294.456360 194.231781,295.528839 
	C194.093964,296.135162 193.893753,296.354950 193.476212,296.664856 
z"/>
</svg>